<svg width="321" height="320" viewBox="0 0 321 320" fill="none" xmlns="http://www.w3.org/2000/svg">
<path d="M186.158 160.002C186.158 170.209 183.131 180.187 177.46 188.674C171.79 197.161 163.73 203.776 154.299 207.682C144.869 211.588 134.492 212.61 124.481 210.619C114.47 208.627 105.275 203.712 98.0572 196.495C90.8396 189.277 85.9244 180.081 83.9331 170.07C81.9418 160.059 82.9638 149.683 86.8699 140.252C90.776 130.822 97.3907 122.762 105.878 117.091C114.365 111.42 124.343 108.394 134.55 108.394L134.55 134.198C129.446 134.198 124.457 135.711 120.214 138.547C115.97 141.382 112.663 145.412 110.71 150.127C108.757 154.842 108.246 160.031 109.241 165.036C110.237 170.042 112.695 174.64 116.303 178.248C119.912 181.857 124.51 184.315 129.516 185.31C134.521 186.306 139.709 185.795 144.425 183.842C149.14 181.889 153.17 178.581 156.005 174.338C158.84 170.095 160.354 165.106 160.354 160.002H186.158Z" fill="white"/>
<path d="M186.117 211.607C196.324 211.607 206.302 208.58 214.789 202.91C223.275 197.239 229.89 189.179 233.796 179.749C237.702 170.318 238.725 159.942 236.733 149.931C234.742 139.92 229.827 130.724 222.609 123.506C215.392 116.289 206.196 111.374 196.185 109.382C186.174 107.391 175.797 108.413 166.367 112.319C156.937 116.225 148.877 122.84 143.206 131.327C137.535 139.814 134.508 149.792 134.508 159.999L160.312 159.999C160.312 154.895 161.826 149.906 164.661 145.663C167.497 141.419 171.527 138.112 176.242 136.159C180.957 134.206 186.145 133.695 191.151 134.691C196.156 135.686 200.754 138.144 204.363 141.753C207.972 145.361 210.429 149.959 211.425 154.965C212.421 159.97 211.91 165.159 209.956 169.874C208.003 174.589 204.696 178.619 200.453 181.454C196.209 184.29 191.22 185.803 186.117 185.803V211.607Z" fill="#5661F6"/>
<path d="M271.471 220.252V232.373H283.592M271.471 254.191C259.421 254.191 249.652 244.423 249.652 232.373C249.652 220.323 259.421 210.555 271.471 210.555C283.52 210.555 293.289 220.323 293.289 232.373C293.289 244.423 283.52 254.191 271.471 254.191Z" stroke="white" stroke-width="4" stroke-linecap="round" stroke-linejoin="round"/>
<path d="M79.512 81.4343L90.038 78.5688M76.1784 48.4235C70.365 50.0061 66.9353 56.0017 68.5179 61.8151C69.0979 63.9457 70.2708 65.7562 71.8101 67.117C74.1773 69.2096 75.36 70.2553 75.5204 70.4161C76.9474 71.8458 76.607 71.2972 77.2582 73.2095C77.3314 73.4244 77.4215 73.7554 77.6016 74.417C77.8654 75.3859 78.8647 75.9575 79.8336 75.6937L86.8509 73.7834C87.8198 73.5196 88.3914 72.5203 88.1276 71.5514C87.9475 70.8898 87.8574 70.5589 87.8116 70.3365C87.4036 68.358 87.3872 69.0038 87.8926 67.0479C87.9494 66.8281 88.4402 65.3268 89.4199 62.323C90.0571 60.3696 90.1503 58.2145 89.5703 56.0839C87.9877 50.2705 81.9917 46.8409 76.1784 48.4235Z" stroke="white" stroke-width="3.6361" stroke-linecap="round" stroke-linejoin="round"/>
<path d="M13.6907 186.869H17.3271M17.3271 186.869H20.9634M17.3271 186.869V161.414M17.3271 161.414H6.41797V163.232M17.3271 161.414H28.2362V163.232" stroke="white" stroke-width="3.6361" stroke-linecap="round" stroke-linejoin="round"/>
<path d="M219.871 52.6641V85.7109H258.543C259.102 85.7109 259.639 85.9332 260.035 86.3288C260.43 86.7243 260.652 87.2609 260.652 87.8203C260.652 88.3798 260.43 88.9163 260.035 89.3119C259.639 89.7074 259.102 89.9297 258.543 89.9297H217.762C217.202 89.9297 216.666 89.7074 216.27 89.3119C215.875 88.9163 215.652 88.3798 215.652 87.8203V52.6641C215.652 52.1046 215.875 51.5681 216.27 51.1725C216.666 50.7769 217.202 50.5547 217.762 50.5547C218.321 50.5547 218.858 50.7769 219.253 51.1725C219.649 51.5681 219.871 52.1046 219.871 52.6641ZM260.034 59.7797L245.268 74.5453C244.872 74.9403 244.336 75.1622 243.777 75.1622C243.218 75.1622 242.682 74.9403 242.287 74.5453L235.34 67.5984L227.69 75.2484C227.29 75.6215 226.761 75.8247 226.214 75.8153C225.668 75.8058 225.146 75.5845 224.759 75.1978C224.373 74.8112 224.151 74.2895 224.142 73.7427C224.132 73.196 224.336 72.667 224.709 72.2672L233.849 63.1266C234.245 62.7315 234.781 62.5097 235.34 62.5097C235.899 62.5097 236.435 62.7315 236.83 63.1266L243.777 70.0734L257.052 56.7984C257.452 56.4254 257.981 56.2221 258.528 56.2316C259.075 56.241 259.596 56.4624 259.983 56.8491C260.37 57.2357 260.591 57.7574 260.6 58.3041C260.61 58.8509 260.407 59.3799 260.034 59.7797Z" fill="white"/>
<path d="M120.069 245.555C117.306 245.555 114.657 246.652 112.703 248.606C110.75 250.559 109.652 253.209 109.652 255.971C109.652 256.524 109.872 257.054 110.263 257.444C110.653 257.835 111.183 258.055 111.736 258.055C112.288 258.055 112.818 257.835 113.209 257.444C113.6 257.054 113.819 256.524 113.819 255.971C113.819 252.517 116.615 249.721 120.069 249.721C123.523 249.721 126.319 252.517 126.319 255.971C126.319 257.671 125.904 258.667 125.407 259.365C124.861 260.126 124.104 260.694 123.057 261.417L122.815 261.58C121.884 262.217 120.684 263.036 119.754 264.178C118.657 265.528 117.986 267.234 117.986 269.513V270.555C117.986 271.107 118.205 271.637 118.596 272.028C118.987 272.419 119.516 272.638 120.069 272.638C120.622 272.638 121.151 272.419 121.542 272.028C121.933 271.637 122.152 271.107 122.152 270.555V269.513C122.152 268.146 122.523 267.38 122.986 266.807C123.521 266.153 124.242 265.657 125.307 264.926L125.417 264.848C126.45 264.14 127.777 263.211 128.792 261.79C129.861 260.307 130.486 258.436 130.486 255.971C130.486 253.209 129.388 250.559 127.435 248.606C125.481 246.652 122.832 245.555 120.069 245.555ZM120.069 281.492C120.76 281.492 121.422 281.218 121.91 280.729C122.399 280.241 122.673 279.579 122.673 278.888C122.673 278.197 122.399 277.535 121.91 277.047C121.422 276.558 120.76 276.284 120.069 276.284C119.378 276.284 118.716 276.558 118.228 277.047C117.739 277.535 117.465 278.197 117.465 278.888C117.465 279.579 117.739 280.241 118.228 280.729C118.716 281.218 119.378 281.492 120.069 281.492Z" fill="white"/>
</svg>
