<svg width="321" height="321" viewBox="0 0 321 321" fill="none" xmlns="http://www.w3.org/2000/svg">
<path d="M186.506 160.447C186.506 170.654 183.479 180.632 177.808 189.119C172.137 197.606 164.077 204.221 154.647 208.127C145.217 212.033 134.84 213.055 124.829 211.064C114.818 209.073 105.622 204.157 98.4048 196.94C91.1873 189.722 86.272 180.527 84.2807 170.516C82.2894 160.505 83.3114 150.128 87.2175 140.698C91.1236 131.267 97.7384 123.207 106.225 117.537C114.712 111.866 124.69 108.839 134.897 108.839L134.897 134.643C129.794 134.643 124.805 136.157 120.561 138.992C116.318 141.827 113.011 145.857 111.057 150.572C109.104 155.288 108.593 160.476 109.589 165.481C110.585 170.487 113.042 175.085 116.651 178.694C120.26 182.302 124.858 184.76 129.863 185.756C134.869 186.751 140.057 186.24 144.772 184.287C149.487 182.334 153.517 179.027 156.353 174.783C159.188 170.54 160.702 165.551 160.702 160.447H186.506Z" fill="white"/>
<path d="M186.464 212.053C196.671 212.053 206.649 209.026 215.136 203.355C223.623 197.684 230.238 189.624 234.144 180.194C238.05 170.764 239.072 160.387 237.081 150.376C235.09 140.365 230.174 131.169 222.957 123.952C215.739 116.734 206.543 111.819 196.532 109.828C186.521 107.836 176.145 108.858 166.715 112.764C157.284 116.671 149.224 123.285 143.553 131.772C137.883 140.259 134.856 150.237 134.856 160.444L160.66 160.444C160.66 155.341 162.173 150.352 165.009 146.108C167.844 141.865 171.874 138.557 176.589 136.604C181.304 134.651 186.493 134.14 191.498 135.136C196.504 136.132 201.102 138.589 204.71 142.198C208.319 145.807 210.777 150.405 211.773 155.41C212.768 160.416 212.257 165.604 210.304 170.319C208.351 175.034 205.044 179.064 200.8 181.9C196.557 184.735 191.568 186.248 186.464 186.248V212.053Z" fill="#5661F6"/>
<path d="M271.818 220.697V232.818H283.939M271.818 254.636C259.768 254.636 250 244.868 250 232.818C250 220.768 259.768 211 271.818 211C283.868 211 293.636 220.768 293.636 232.818C293.636 244.868 283.868 254.636 271.818 254.636Z" stroke="white" stroke-width="4" stroke-linecap="round" stroke-linejoin="round"/>
<path d="M79.8597 81.8796L90.3857 79.0141M76.526 48.8688C70.7127 50.4514 67.283 56.447 68.8656 62.2604C69.4456 64.391 70.6184 66.2015 72.1578 67.5623C74.525 69.655 75.7076 70.7007 75.868 70.8614C77.2951 72.2912 76.9546 71.7425 77.6058 73.6548C77.679 73.8697 77.7692 74.2007 77.9493 74.8623C78.2131 75.8312 79.2123 76.4028 80.1812 76.139L87.1986 74.2287C88.1674 73.9649 88.7391 72.9656 88.4753 71.9967C88.2952 71.3352 88.2051 71.0042 88.1592 70.7818C87.7512 68.8033 87.7348 69.4491 88.2402 67.4932C88.297 67.2734 88.7878 65.7721 89.7676 62.7683C90.4047 60.8149 90.498 58.6598 89.9179 56.5292C88.3353 50.7158 82.3394 47.2862 76.526 48.8688Z" stroke="white" stroke-width="3.6361" stroke-linecap="round" stroke-linejoin="round"/>
<path d="M14.0384 187.314H17.6747M17.6747 187.314H21.3111M17.6747 187.314V161.859M17.6747 161.859H6.76562V163.678M17.6747 161.859H28.5838V163.678" stroke="white" stroke-width="3.6361" stroke-linecap="round" stroke-linejoin="round"/>
</svg>
