<svg width="223" height="217" viewBox="0 0 223 217" fill="none" xmlns="http://www.w3.org/2000/svg">
<path opacity="0.5" d="M66.625 71.7812L4.32812 121.211V166.581L20.919 183.172H123.842V102.593L80.8447 71.7812H66.625Z" fill="#4C4C4C"/>
<path d="M221.738 25.5547L221.735 123.188L221.738 183.173H123.844V102.595L140.5 97L166.842 71.7832L221.738 25.5547Z" fill="#5661F6"/>
<path d="M3.94531 123.011V144.608C3.94531 158.049 3.94531 164.765 6.56116 169.899C8.86212 174.415 12.531 178.094 17.0469 180.395C22.1757 183.008 28.8932 183.008 42.3082 183.008H219.948M3.94531 123.011V3.00781M3.94531 123.011L50.1861 84.4766L50.2243 84.4459C58.5893 77.4751 62.7799 73.9829 67.3238 72.5645C72.6917 70.8888 78.4738 71.1538 83.668 73.3086C88.0713 75.1353 91.9324 78.9964 99.6544 86.7184L99.7319 86.7959C107.574 94.6379 111.505 98.5693 115.979 100.392C121.274 102.549 127.168 102.734 132.594 100.935C137.194 99.4087 141.396 95.7384 149.797 88.3874L219.945 27.0078" stroke="white" stroke-width="6" stroke-linecap="round" stroke-linejoin="round"/>
<path d="M124 104L124 143.5L124 183" stroke="white" stroke-width="4" stroke-dasharray="10 10"/>
<path d="M55.0725 216.028V212.373H56.0265C56.3025 211.977 56.5185 211.545 56.6745 211.077C56.8425 210.609 56.9625 210.081 57.0345 209.493C57.1065 208.893 57.1425 208.227 57.1425 207.495V204.921H63.4965V212.373H64.9005V216.028H63.4785V213.688H56.4945V216.028H55.0725ZM57.5745 212.373H61.9485V206.199H58.5825V207.801C58.5825 208.665 58.4925 209.505 58.3125 210.321C58.1445 211.125 57.8985 211.809 57.5745 212.373ZM70.4923 213.85C69.6283 213.85 68.8783 213.663 68.2423 213.291C67.6063 212.919 67.1143 212.391 66.7663 211.707C66.4183 211.023 66.2443 210.219 66.2443 209.295C66.2443 208.371 66.4183 207.573 66.7663 206.901C67.1143 206.217 67.6063 205.689 68.2423 205.317C68.8783 204.945 69.6283 204.759 70.4923 204.759C71.3563 204.759 72.1063 204.945 72.7423 205.317C73.3783 205.689 73.8703 206.217 74.2183 206.901C74.5663 207.573 74.7403 208.371 74.7403 209.295C74.7403 210.219 74.5663 211.023 74.2183 211.707C73.8703 212.391 73.3783 212.919 72.7423 213.291C72.1063 213.663 71.3563 213.85 70.4923 213.85ZM70.4923 212.553C71.2843 212.553 71.9143 212.277 72.3823 211.725C72.8503 211.161 73.0843 210.351 73.0843 209.295C73.0843 208.239 72.8503 207.435 72.3823 206.883C71.9143 206.331 71.2843 206.055 70.4923 206.055C69.7123 206.055 69.0823 206.331 68.6023 206.883C68.1343 207.435 67.9003 208.239 67.9003 209.295C67.9003 210.351 68.1343 211.161 68.6023 211.725C69.0823 212.277 69.7123 212.553 70.4923 212.553Z" fill="white"/>
<path d="M148.859 213.688V204.921H156.653V213.688H155.015V206.235H150.497V213.688H148.859ZM163.185 213.85C162.321 213.85 161.571 213.663 160.935 213.291C160.299 212.919 159.807 212.391 159.459 211.707C159.111 211.023 158.937 210.219 158.937 209.295C158.937 208.371 159.111 207.573 159.459 206.901C159.807 206.217 160.299 205.689 160.935 205.317C161.571 204.945 162.321 204.759 163.185 204.759C164.049 204.759 164.799 204.945 165.435 205.317C166.071 205.689 166.563 206.217 166.911 206.901C167.259 207.573 167.433 208.371 167.433 209.295C167.433 210.219 167.259 211.023 166.911 211.707C166.563 212.391 166.071 212.919 165.435 213.291C164.799 213.663 164.049 213.85 163.185 213.85ZM163.185 212.553C163.977 212.553 164.607 212.277 165.075 211.725C165.543 211.161 165.777 210.351 165.777 209.295C165.777 208.239 165.543 207.435 165.075 206.883C164.607 206.331 163.977 206.055 163.185 206.055C162.405 206.055 161.775 206.331 161.295 206.883C160.827 207.435 160.593 208.239 160.593 209.295C160.593 210.351 160.827 211.161 161.295 211.725C161.775 212.277 162.405 212.553 163.185 212.553ZM173.54 213.85C172.652 213.85 171.884 213.663 171.236 213.291C170.588 212.907 170.09 212.373 169.742 211.689C169.394 210.993 169.22 210.177 169.22 209.241C169.22 208.317 169.394 207.519 169.742 206.847C170.09 206.175 170.588 205.659 171.236 205.299C171.884 204.939 172.652 204.759 173.54 204.759C174.092 204.759 174.632 204.855 175.16 205.047C175.7 205.239 176.144 205.509 176.492 205.857L175.952 207.009C175.604 206.697 175.226 206.463 174.818 206.307C174.41 206.151 174.02 206.073 173.648 206.073C172.772 206.073 172.094 206.349 171.614 206.901C171.134 207.453 170.894 208.239 170.894 209.259C170.894 210.279 171.134 211.083 171.614 211.671C172.094 212.247 172.772 212.535 173.648 212.535C174.02 212.535 174.41 212.457 174.818 212.301C175.226 212.145 175.604 211.905 175.952 211.581L176.492 212.751C176.144 213.099 175.694 213.369 175.142 213.561C174.602 213.754 174.068 213.85 173.54 213.85ZM177.87 213.904L177.294 212.607C177.702 212.439 178.038 212.229 178.302 211.977C178.578 211.713 178.794 211.377 178.95 210.969C179.106 210.561 179.22 210.057 179.292 209.457C179.364 208.857 179.4 208.131 179.4 207.279V204.921H185.916V213.688H184.278V206.235H180.93V207.315C180.93 208.323 180.87 209.205 180.75 209.961C180.642 210.705 180.468 211.335 180.228 211.851C179.988 212.367 179.67 212.793 179.274 213.129C178.89 213.465 178.422 213.724 177.87 213.904ZM192.776 213.85C191.828 213.85 191.012 213.669 190.328 213.309C189.656 212.937 189.134 212.415 188.762 211.743C188.39 211.059 188.204 210.255 188.204 209.331C188.204 208.419 188.384 207.621 188.744 206.937C189.116 206.253 189.62 205.719 190.256 205.335C190.904 204.951 191.642 204.759 192.47 204.759C193.274 204.759 193.958 204.933 194.522 205.281C195.098 205.629 195.536 206.127 195.836 206.775C196.148 207.411 196.304 208.179 196.304 209.079V209.673H189.482V208.629H195.224L194.918 208.881C194.918 207.945 194.714 207.225 194.306 206.721C193.898 206.205 193.298 205.947 192.506 205.947C191.93 205.947 191.438 206.085 191.03 206.361C190.622 206.625 190.31 207.003 190.094 207.495C189.878 207.975 189.77 208.533 189.77 209.169V209.277C189.77 209.997 189.884 210.603 190.112 211.095C190.352 211.575 190.694 211.941 191.138 212.193C191.582 212.433 192.128 212.553 192.776 212.553C193.292 212.553 193.79 212.475 194.27 212.319C194.762 212.151 195.224 211.893 195.656 211.545L196.16 212.679C195.764 213.039 195.254 213.327 194.63 213.543C194.018 213.748 193.4 213.85 192.776 213.85Z" fill="white"/>
</svg>
