<svg width="287" height="253" viewBox="0 0 287 253" fill="none" xmlns="http://www.w3.org/2000/svg">
<path d="M132.093 88.4156C140.821 97.0837 146.784 108.145 149.226 120.202C151.667 132.259 150.479 144.768 145.811 156.15C141.143 167.531 133.205 177.273 123.001 184.142C112.796 191.012 100.784 194.702 88.4828 194.745C76.1815 194.787 64.1437 191.181 53.8918 184.383C43.6399 177.584 35.6342 167.898 30.8872 156.55C26.1401 145.201 24.8649 132.7 27.2228 120.626C29.5807 108.553 35.4658 97.4502 44.1338 88.7216L66.2001 110.635C61.8661 114.999 58.9235 120.551 57.7446 126.587C56.5656 132.624 57.2033 138.875 59.5768 144.549C61.9503 150.223 65.9531 155.066 71.0791 158.465C76.2051 161.865 82.2239 163.668 88.3746 163.646C94.5252 163.625 100.531 161.78 105.634 158.345C110.736 154.91 114.705 150.04 117.039 144.349C119.373 138.658 119.967 132.403 118.746 126.375C117.525 120.347 114.544 114.816 110.18 110.482L132.093 88.4156Z" fill="white"/>
<path d="M176.188 132.275C184.856 123.546 190.741 112.444 193.099 100.37C195.456 88.2969 194.181 75.7956 189.434 64.4471C184.687 53.0985 176.682 43.4125 166.43 36.6139C156.178 29.8152 144.14 26.2093 131.839 26.2521C119.537 26.2949 107.525 29.9845 97.3206 36.8543C87.1162 43.7241 79.1782 53.4656 74.5102 64.8469C69.8422 76.2282 68.6541 88.7381 71.0959 100.795C73.5377 112.851 79.4999 123.913 88.2285 132.581L110.142 110.515C105.777 106.181 102.796 100.65 101.575 94.6216C100.355 88.5933 100.949 82.3384 103.283 76.6477C105.617 70.9571 109.586 66.0863 114.688 62.6514C119.79 59.2165 125.796 57.3717 131.947 57.3503C138.097 57.3289 144.116 59.1319 149.242 62.5312C154.368 65.9305 158.371 70.7735 160.745 76.4478C163.118 82.1221 163.756 88.3727 162.577 94.4094C161.398 100.446 158.455 105.997 154.121 110.362L176.188 132.275Z" fill="#5661F6"/>
<circle cx="166.969" cy="132.809" r="72.8399" fill="url(#paint0_linear_786_746)"/>
<path d="M218.971 184.792L281.531 247.352M166.838 205.645C126.529 205.645 93.8516 172.968 93.8516 132.658C93.8516 92.3491 126.529 59.6719 166.838 59.6719C207.147 59.6719 239.825 92.3491 239.825 132.658C239.825 172.968 207.147 205.645 166.838 205.645Z" stroke="#C2C2C2" stroke-width="10" stroke-linecap="round" stroke-linejoin="round"/>
<defs>
<linearGradient id="paint0_linear_786_746" x1="125.971" y1="73.3221" x2="218.298" y2="201.806" gradientUnits="userSpaceOnUse">
<stop offset="0.269063" stop-color="white" stop-opacity="0.1"/>
<stop offset="1" stop-color="#5E83FF"/>
</linearGradient>
</defs>
</svg>
