<svg width="1440" height="902" viewBox="0 0 1440 902" fill="none" xmlns="http://www.w3.org/2000/svg">
<g opacity="0.15">
<path opacity="0.1" d="M84.184 0H0V81.6106H84.184V0Z" stroke="white" stroke-width="2.33844" stroke-miterlimit="10"/>
<path opacity="0.1" d="M84.184 81.8359H0V163.447H84.184V81.8359Z" stroke="white" stroke-width="2.33844" stroke-miterlimit="10"/>
<path opacity="0.1" d="M84.184 163.688H0V245.298H84.184V163.688Z" stroke="white" stroke-width="2.33844" stroke-miterlimit="10"/>
<path opacity="0.1" d="M84.184 245.508H0V327.118H84.184V245.508Z" stroke="white" stroke-width="2.33844" stroke-miterlimit="10"/>
<path opacity="0.1" d="M84.184 327.359H0V408.97H84.184V327.359Z" stroke="white" stroke-width="2.33844" stroke-miterlimit="10"/>
<path opacity="0.1" d="M84.184 409.195H0V490.806H84.184V409.195Z" stroke="white" stroke-width="2.33844" stroke-miterlimit="10"/>
<path opacity="0.1" d="M84.184 491.016H0V572.626H84.184V491.016Z" stroke="white" stroke-width="2.33844" stroke-miterlimit="10"/>
<path opacity="0.1" d="M84.184 572.867H0V654.478H84.184V572.867Z" stroke="white" stroke-width="2.33844" stroke-miterlimit="10"/>
<path opacity="0.1" d="M168.93 0H84.7461V81.6106H168.93V0Z" stroke="white" stroke-width="2.33844" stroke-miterlimit="10"/>
<path opacity="0.1" d="M168.93 81.8359H84.7461V163.447H168.93V81.8359Z" stroke="white" stroke-width="2.33844" stroke-miterlimit="10"/>
<path opacity="0.1" d="M168.93 163.688H84.7461V245.298H168.93V163.688Z" stroke="white" stroke-width="2.33844" stroke-miterlimit="10"/>
<path opacity="0.1" d="M168.93 245.508H84.7461V327.118H168.93V245.508Z" stroke="white" stroke-width="2.33844" stroke-miterlimit="10"/>
<path opacity="0.1" d="M168.93 327.359H84.7461V408.97H168.93V327.359Z" stroke="white" stroke-width="2.33844" stroke-miterlimit="10"/>
<path opacity="0.1" d="M168.93 409.195H84.7461V490.806H168.93V409.195Z" stroke="white" stroke-width="2.33844" stroke-miterlimit="10"/>
<path opacity="0.1" d="M168.93 491.016H84.7461V572.626H168.93V491.016Z" stroke="white" stroke-width="2.33844" stroke-miterlimit="10"/>
<path opacity="0.1" d="M168.93 572.867H84.7461V654.478H168.93V572.867Z" stroke="white" stroke-width="2.33844" stroke-miterlimit="10"/>
<path opacity="0.1" d="M253.676 0H169.492V81.6106H253.676V0Z" stroke="white" stroke-width="2.33844" stroke-miterlimit="10"/>
<path opacity="0.1" d="M253.676 81.8359H169.492V163.447H253.676V81.8359Z" stroke="white" stroke-width="2.33844" stroke-miterlimit="10"/>
<path opacity="0.1" d="M253.676 163.688H169.492V245.298H253.676V163.688Z" stroke="white" stroke-width="2.33844" stroke-miterlimit="10"/>
<path opacity="0.1" d="M253.676 245.508H169.492V327.118H253.676V245.508Z" stroke="white" stroke-width="2.33844" stroke-miterlimit="10"/>
<path opacity="0.1" d="M253.676 327.359H169.492V408.97H253.676V327.359Z" stroke="white" stroke-width="2.33844" stroke-miterlimit="10"/>
<path opacity="0.1" d="M253.676 409.195H169.492V490.806H253.676V409.195Z" stroke="white" stroke-width="2.33844" stroke-miterlimit="10"/>
<path opacity="0.1" d="M253.676 491.016H169.492V572.626H253.676V491.016Z" stroke="white" stroke-width="2.33844" stroke-miterlimit="10"/>
<path opacity="0.1" d="M253.676 572.867H169.492V654.478H253.676V572.867Z" stroke="white" stroke-width="2.33844" stroke-miterlimit="10"/>
<path opacity="0.1" d="M338.403 0H254.219V81.6106H338.403V0Z" stroke="white" stroke-width="2.33844" stroke-miterlimit="10"/>
<path opacity="0.1" d="M338.403 81.8359H254.219V163.447H338.403V81.8359Z" stroke="white" stroke-width="2.33844" stroke-miterlimit="10"/>
<path opacity="0.1" d="M338.403 163.688H254.219V245.298H338.403V163.688Z" stroke="white" stroke-width="2.33844" stroke-miterlimit="10"/>
<path opacity="0.1" d="M338.403 245.508H254.219V327.118H338.403V245.508Z" stroke="white" stroke-width="2.33844" stroke-miterlimit="10"/>
<path opacity="0.1" d="M338.403 327.359H254.219V408.97H338.403V327.359Z" stroke="white" stroke-width="2.33844" stroke-miterlimit="10"/>
<path opacity="0.1" d="M338.403 409.195H254.219V490.806H338.403V409.195Z" stroke="white" stroke-width="2.33844" stroke-miterlimit="10"/>
<path opacity="0.1" d="M338.403 491.016H254.219V572.626H338.403V491.016Z" stroke="white" stroke-width="2.33844" stroke-miterlimit="10"/>
<path opacity="0.1" d="M338.403 572.867H254.219V654.478H338.403V572.867Z" stroke="white" stroke-width="2.33844" stroke-miterlimit="10"/>
<path opacity="0.1" d="M423.145 0H338.961V81.6106H423.145V0Z" stroke="white" stroke-width="2.33844" stroke-miterlimit="10"/>
<path opacity="0.1" d="M423.145 81.8359H338.961V163.447H423.145V81.8359Z" stroke="white" stroke-width="2.33844" stroke-miterlimit="10"/>
<path opacity="0.1" d="M423.145 163.688H338.961V245.298H423.145V163.688Z" stroke="white" stroke-width="2.33844" stroke-miterlimit="10"/>
<path opacity="0.1" d="M423.145 245.508H338.961V327.118H423.145V245.508Z" stroke="white" stroke-width="2.33844" stroke-miterlimit="10"/>
<path opacity="0.1" d="M423.145 327.359H338.961V408.97H423.145V327.359Z" stroke="white" stroke-width="2.33844" stroke-miterlimit="10"/>
<path opacity="0.1" d="M423.145 409.195H338.961V490.806H423.145V409.195Z" stroke="white" stroke-width="2.33844" stroke-miterlimit="10"/>
<path opacity="0.1" d="M423.145 491.016H338.961V572.626H423.145V491.016Z" stroke="white" stroke-width="2.33844" stroke-miterlimit="10"/>
<path opacity="0.1" d="M423.145 572.867H338.961V654.478H423.145V572.867Z" stroke="white" stroke-width="2.33844" stroke-miterlimit="10"/>
<path opacity="0.1" d="M507.872 0H423.688V81.6106H507.872V0Z" stroke="white" stroke-width="2.33844" stroke-miterlimit="10"/>
<path opacity="0.1" d="M507.872 81.8359H423.688V163.447H507.872V81.8359Z" stroke="white" stroke-width="2.33844" stroke-miterlimit="10"/>
<path opacity="0.1" d="M507.872 163.688H423.688V245.298H507.872V163.688Z" stroke="white" stroke-width="2.33844" stroke-miterlimit="10"/>
<path opacity="0.1" d="M507.872 245.508H423.688V327.118H507.872V245.508Z" stroke="white" stroke-width="2.33844" stroke-miterlimit="10"/>
<path opacity="0.1" d="M507.872 327.359H423.688V408.97H507.872V327.359Z" stroke="white" stroke-width="2.33844" stroke-miterlimit="10"/>
<path opacity="0.1" d="M507.872 409.195H423.688V490.806H507.872V409.195Z" stroke="white" stroke-width="2.33844" stroke-miterlimit="10"/>
<path opacity="0.1" d="M507.872 491.016H423.688V572.626H507.872V491.016Z" stroke="white" stroke-width="2.33844" stroke-miterlimit="10"/>
<path opacity="0.1" d="M507.872 572.867H423.688V654.478H507.872V572.867Z" stroke="white" stroke-width="2.33844" stroke-miterlimit="10"/>
<path opacity="0.1" d="M592.618 0H508.434V81.6106H592.618V0Z" stroke="white" stroke-width="2.33844" stroke-miterlimit="10"/>
<path opacity="0.1" d="M592.618 81.8359H508.434V163.447H592.618V81.8359Z" stroke="white" stroke-width="2.33844" stroke-miterlimit="10"/>
<path opacity="0.1" d="M592.618 163.688H508.434V245.298H592.618V163.688Z" stroke="white" stroke-width="2.33844" stroke-miterlimit="10"/>
<path opacity="0.1" d="M592.618 245.508H508.434V327.118H592.618V245.508Z" stroke="white" stroke-width="2.33844" stroke-miterlimit="10"/>
<path opacity="0.1" d="M592.618 327.359H508.434V408.97H592.618V327.359Z" stroke="white" stroke-width="2.33844" stroke-miterlimit="10"/>
<path opacity="0.1" d="M592.618 409.195H508.434V490.806H592.618V409.195Z" stroke="white" stroke-width="2.33844" stroke-miterlimit="10"/>
<path opacity="0.1" d="M592.618 491.016H508.434V572.626H592.618V491.016Z" stroke="white" stroke-width="2.33844" stroke-miterlimit="10"/>
<path opacity="0.1" d="M592.618 572.867H508.434V654.478H592.618V572.867Z" stroke="white" stroke-width="2.33844" stroke-miterlimit="10"/>
<path opacity="0.1" d="M677.348 0H593.164V81.6106H677.348V0Z" stroke="white" stroke-width="2.33844" stroke-miterlimit="10"/>
<path opacity="0.1" d="M677.348 81.8359H593.164V163.447H677.348V81.8359Z" stroke="white" stroke-width="2.33844" stroke-miterlimit="10"/>
<path opacity="0.1" d="M677.348 163.688H593.164V245.298H677.348V163.688Z" stroke="white" stroke-width="2.33844" stroke-miterlimit="10"/>
<path opacity="0.1" d="M677.348 245.508H593.164V327.118H677.348V245.508Z" stroke="white" stroke-width="2.33844" stroke-miterlimit="10"/>
<path opacity="0.1" d="M677.348 327.359H593.164V408.97H677.348V327.359Z" stroke="white" stroke-width="2.33844" stroke-miterlimit="10"/>
<path opacity="0.1" d="M677.348 409.195H593.164V490.806H677.348V409.195Z" stroke="white" stroke-width="2.33844" stroke-miterlimit="10"/>
<path opacity="0.1" d="M677.348 491.016H593.164V572.626H677.348V491.016Z" stroke="white" stroke-width="2.33844" stroke-miterlimit="10"/>
<path opacity="0.1" d="M677.348 572.867H593.164V654.478H677.348V572.867Z" stroke="white" stroke-width="2.33844" stroke-miterlimit="10"/>
<path opacity="0.1" d="M762.098 0H677.914V81.6106H762.098V0Z" stroke="white" stroke-width="2.33844" stroke-miterlimit="10"/>
<path opacity="0.1" d="M762.098 81.8359H677.914V163.447H762.098V81.8359Z" stroke="white" stroke-width="2.33844" stroke-miterlimit="10"/>
<path opacity="0.1" d="M762.098 163.688H677.914V245.298H762.098V163.688Z" stroke="white" stroke-width="2.33844" stroke-miterlimit="10"/>
<path opacity="0.1" d="M762.098 245.508H677.914V327.118H762.098V245.508Z" stroke="white" stroke-width="2.33844" stroke-miterlimit="10"/>
<path opacity="0.1" d="M762.098 327.359H677.914V408.97H762.098V327.359Z" stroke="white" stroke-width="2.33844" stroke-miterlimit="10"/>
<path opacity="0.1" d="M762.098 409.195H677.914V490.806H762.098V409.195Z" stroke="white" stroke-width="2.33844" stroke-miterlimit="10"/>
<path opacity="0.1" d="M762.098 491.016H677.914V572.626H762.098V491.016Z" stroke="white" stroke-width="2.33844" stroke-miterlimit="10"/>
<path opacity="0.1" d="M762.098 572.867H677.914V654.478H762.098V572.867Z" stroke="white" stroke-width="2.33844" stroke-miterlimit="10"/>
<path opacity="0.1" d="M846.84 0H762.656V81.6106H846.84V0Z" stroke="white" stroke-width="2.33844" stroke-miterlimit="10"/>
<path opacity="0.1" d="M846.84 81.8359H762.656V163.447H846.84V81.8359Z" stroke="white" stroke-width="2.33844" stroke-miterlimit="10"/>
<path opacity="0.1" d="M846.84 163.688H762.656V245.298H846.84V163.688Z" stroke="white" stroke-width="2.33844" stroke-miterlimit="10"/>
<path opacity="0.1" d="M846.84 245.508H762.656V327.118H846.84V245.508Z" stroke="white" stroke-width="2.33844" stroke-miterlimit="10"/>
<path opacity="0.1" d="M846.84 327.359H762.656V408.97H846.84V327.359Z" stroke="white" stroke-width="2.33844" stroke-miterlimit="10"/>
<path opacity="0.1" d="M846.84 409.195H762.656V490.806H846.84V409.195Z" stroke="white" stroke-width="2.33844" stroke-miterlimit="10"/>
<path opacity="0.1" d="M846.84 491.016H762.656V572.626H846.84V491.016Z" stroke="white" stroke-width="2.33844" stroke-miterlimit="10"/>
<path opacity="0.1" d="M846.84 572.867H762.656V654.478H846.84V572.867Z" stroke="white" stroke-width="2.33844" stroke-miterlimit="10"/>
<path opacity="0.1" d="M931.567 0H847.383V81.6106H931.567V0Z" stroke="white" stroke-width="2.33844" stroke-miterlimit="10"/>
<path opacity="0.1" d="M931.567 81.8359H847.383V163.447H931.567V81.8359Z" stroke="white" stroke-width="2.33844" stroke-miterlimit="10"/>
<path opacity="0.1" d="M931.567 163.688H847.383V245.298H931.567V163.688Z" stroke="white" stroke-width="2.33844" stroke-miterlimit="10"/>
<path opacity="0.1" d="M931.567 245.508H847.383V327.118H931.567V245.508Z" stroke="white" stroke-width="2.33844" stroke-miterlimit="10"/>
<path opacity="0.1" d="M931.567 327.359H847.383V408.97H931.567V327.359Z" stroke="white" stroke-width="2.33844" stroke-miterlimit="10"/>
<path opacity="0.1" d="M931.567 409.195H847.383V490.806H931.567V409.195Z" stroke="white" stroke-width="2.33844" stroke-miterlimit="10"/>
<path opacity="0.1" d="M931.567 491.016H847.383V572.626H931.567V491.016Z" stroke="white" stroke-width="2.33844" stroke-miterlimit="10"/>
<path opacity="0.1" d="M931.567 572.867H847.383V654.478H931.567V572.867Z" stroke="white" stroke-width="2.33844" stroke-miterlimit="10"/>
<path opacity="0.1" d="M1016.31 0H932.129V81.6106H1016.31V0Z" stroke="white" stroke-width="2.33844" stroke-miterlimit="10"/>
<path opacity="0.1" d="M1016.31 81.8359H932.129V163.447H1016.31V81.8359Z" stroke="white" stroke-width="2.33844" stroke-miterlimit="10"/>
<path opacity="0.1" d="M1016.31 163.688H932.129V245.298H1016.31V163.688Z" stroke="white" stroke-width="2.33844" stroke-miterlimit="10"/>
<path opacity="0.1" d="M1016.31 245.508H932.129V327.118H1016.31V245.508Z" stroke="white" stroke-width="2.33844" stroke-miterlimit="10"/>
<path opacity="0.1" d="M1016.31 327.359H932.129V408.97H1016.31V327.359Z" stroke="white" stroke-width="2.33844" stroke-miterlimit="10"/>
<path opacity="0.1" d="M1016.31 409.195H932.129V490.806H1016.31V409.195Z" stroke="white" stroke-width="2.33844" stroke-miterlimit="10"/>
<path opacity="0.1" d="M1016.31 491.016H932.129V572.626H1016.31V491.016Z" stroke="white" stroke-width="2.33844" stroke-miterlimit="10"/>
<path opacity="0.1" d="M1016.31 572.867H932.129V654.478H1016.31V572.867Z" stroke="white" stroke-width="2.33844" stroke-miterlimit="10"/>
<path opacity="0.1" d="M1101.04 0H1016.86V81.6106H1101.04V0Z" stroke="white" stroke-width="2.33844" stroke-miterlimit="10"/>
<path opacity="0.1" d="M1101.04 81.8359H1016.86V163.447H1101.04V81.8359Z" stroke="white" stroke-width="2.33844" stroke-miterlimit="10"/>
<path opacity="0.1" d="M1101.04 163.688H1016.86V245.298H1101.04V163.688Z" stroke="white" stroke-width="2.33844" stroke-miterlimit="10"/>
<path opacity="0.1" d="M1101.04 245.508H1016.86V327.118H1101.04V245.508Z" stroke="white" stroke-width="2.33844" stroke-miterlimit="10"/>
<path opacity="0.1" d="M1101.04 327.359H1016.86V408.97H1101.04V327.359Z" stroke="white" stroke-width="2.33844" stroke-miterlimit="10"/>
<path opacity="0.1" d="M1101.04 409.195H1016.86V490.806H1101.04V409.195Z" stroke="white" stroke-width="2.33844" stroke-miterlimit="10"/>
<path opacity="0.1" d="M1101.04 491.016H1016.86V572.626H1101.04V491.016Z" stroke="white" stroke-width="2.33844" stroke-miterlimit="10"/>
<path opacity="0.1" d="M1101.04 572.867H1016.86V654.478H1101.04V572.867Z" stroke="white" stroke-width="2.33844" stroke-miterlimit="10"/>
<path opacity="0.1" d="M1185.79 0H1101.6V81.6106H1185.79V0Z" stroke="white" stroke-width="2.33844" stroke-miterlimit="10"/>
<path opacity="0.1" d="M1185.79 81.8359H1101.6V163.447H1185.79V81.8359Z" stroke="white" stroke-width="2.33844" stroke-miterlimit="10"/>
<path opacity="0.1" d="M1185.79 163.688H1101.6V245.298H1185.79V163.688Z" stroke="white" stroke-width="2.33844" stroke-miterlimit="10"/>
<path opacity="0.1" d="M1185.79 245.508H1101.6V327.118H1185.79V245.508Z" stroke="white" stroke-width="2.33844" stroke-miterlimit="10"/>
<path opacity="0.1" d="M1185.79 327.359H1101.6V408.97H1185.79V327.359Z" stroke="white" stroke-width="2.33844" stroke-miterlimit="10"/>
<path opacity="0.1" d="M1185.79 409.195H1101.6V490.806H1185.79V409.195Z" stroke="white" stroke-width="2.33844" stroke-miterlimit="10"/>
<path opacity="0.1" d="M1185.79 491.016H1101.6V572.626H1185.79V491.016Z" stroke="white" stroke-width="2.33844" stroke-miterlimit="10"/>
<path opacity="0.1" d="M1185.79 572.867H1101.6V654.478H1185.79V572.867Z" stroke="white" stroke-width="2.33844" stroke-miterlimit="10"/>
<path opacity="0.1" d="M1270.52 0H1186.33V81.6106H1270.52V0Z" stroke="white" stroke-width="2.33844" stroke-miterlimit="10"/>
<path opacity="0.1" d="M1270.52 81.8359H1186.33V163.447H1270.52V81.8359Z" stroke="white" stroke-width="2.33844" stroke-miterlimit="10"/>
<path opacity="0.1" d="M1270.52 163.688H1186.33V245.298H1270.52V163.688Z" stroke="white" stroke-width="2.33844" stroke-miterlimit="10"/>
<path opacity="0.1" d="M1270.52 245.508H1186.33V327.118H1270.52V245.508Z" stroke="white" stroke-width="2.33844" stroke-miterlimit="10"/>
<path opacity="0.1" d="M1270.52 327.359H1186.33V408.97H1270.52V327.359Z" stroke="white" stroke-width="2.33844" stroke-miterlimit="10"/>
<path opacity="0.1" d="M1270.52 409.195H1186.33V490.806H1270.52V409.195Z" stroke="white" stroke-width="2.33844" stroke-miterlimit="10"/>
<path opacity="0.1" d="M1270.52 491.016H1186.33V572.626H1270.52V491.016Z" stroke="white" stroke-width="2.33844" stroke-miterlimit="10"/>
<path opacity="0.1" d="M1270.52 572.867H1186.33V654.478H1270.52V572.867Z" stroke="white" stroke-width="2.33844" stroke-miterlimit="10"/>
<path opacity="0.1" d="M1355.25 0H1271.07V81.6106H1355.25V0Z" stroke="white" stroke-width="2.33844" stroke-miterlimit="10"/>
<path opacity="0.1" d="M1355.25 81.8359H1271.07V163.447H1355.25V81.8359Z" stroke="white" stroke-width="2.33844" stroke-miterlimit="10"/>
<path opacity="0.1" d="M1355.25 163.688H1271.07V245.298H1355.25V163.688Z" stroke="white" stroke-width="2.33844" stroke-miterlimit="10"/>
<path opacity="0.1" d="M1355.25 245.508H1271.07V327.118H1355.25V245.508Z" stroke="white" stroke-width="2.33844" stroke-miterlimit="10"/>
<path opacity="0.1" d="M1355.25 327.359H1271.07V408.97H1355.25V327.359Z" stroke="white" stroke-width="2.33844" stroke-miterlimit="10"/>
<path opacity="0.1" d="M1355.25 409.195H1271.07V490.806H1355.25V409.195Z" stroke="white" stroke-width="2.33844" stroke-miterlimit="10"/>
<path opacity="0.1" d="M1355.25 491.016H1271.07V572.626H1355.25V491.016Z" stroke="white" stroke-width="2.33844" stroke-miterlimit="10"/>
<path opacity="0.1" d="M1355.25 572.867H1271.07V654.478H1355.25V572.867Z" stroke="white" stroke-width="2.33844" stroke-miterlimit="10"/>
<path opacity="0.1" d="M1440 0H1355.82V81.6106H1440V0Z" stroke="white" stroke-width="2.33844" stroke-miterlimit="10"/>
<path opacity="0.1" d="M1440 81.8359H1355.82V163.447H1440V81.8359Z" stroke="white" stroke-width="2.33844" stroke-miterlimit="10"/>
<path opacity="0.1" d="M1440 163.688H1355.82V245.298H1440V163.688Z" stroke="white" stroke-width="2.33844" stroke-miterlimit="10"/>
<path opacity="0.1" d="M1440 245.508H1355.82V327.118H1440V245.508Z" stroke="white" stroke-width="2.33844" stroke-miterlimit="10"/>
<path opacity="0.1" d="M1440 327.359H1355.82V408.97H1440V327.359Z" stroke="white" stroke-width="2.33844" stroke-miterlimit="10"/>
<path opacity="0.1" d="M1440 409.195H1355.82V490.806H1440V409.195Z" stroke="white" stroke-width="2.33844" stroke-miterlimit="10"/>
<path opacity="0.1" d="M1440 491.016H1355.82V572.626H1440V491.016Z" stroke="white" stroke-width="2.33844" stroke-miterlimit="10"/>
<path opacity="0.1" d="M1440 572.867H1355.82V654.478H1440V572.867Z" stroke="white" stroke-width="2.33844" stroke-miterlimit="10"/>
<path opacity="0.1" d="M84.184 654.703H0V736.314H84.184V654.703Z" stroke="white" stroke-width="2.33844" stroke-miterlimit="10"/>
<path opacity="0.1" d="M168.93 654.703H84.7461V736.314H168.93V654.703Z" stroke="white" stroke-width="2.33844" stroke-miterlimit="10"/>
<path opacity="0.1" d="M253.676 654.703H169.492V736.314H253.676V654.703Z" stroke="white" stroke-width="2.33844" stroke-miterlimit="10"/>
<path opacity="0.1" d="M338.403 654.703H254.219V736.314H338.403V654.703Z" stroke="white" stroke-width="2.33844" stroke-miterlimit="10"/>
<path opacity="0.1" d="M423.145 654.703H338.961V736.314H423.145V654.703Z" stroke="white" stroke-width="2.33844" stroke-miterlimit="10"/>
<path opacity="0.1" d="M507.872 654.703H423.688V736.314H507.872V654.703Z" stroke="white" stroke-width="2.33844" stroke-miterlimit="10"/>
<path opacity="0.1" d="M592.618 654.703H508.434V736.314H592.618V654.703Z" stroke="white" stroke-width="2.33844" stroke-miterlimit="10"/>
<path opacity="0.1" d="M677.348 654.703H593.164V736.314H677.348V654.703Z" stroke="white" stroke-width="2.33844" stroke-miterlimit="10"/>
<path opacity="0.1" d="M762.098 654.703H677.914V736.314H762.098V654.703Z" stroke="white" stroke-width="2.33844" stroke-miterlimit="10"/>
<path opacity="0.1" d="M846.84 654.703H762.656V736.314H846.84V654.703Z" stroke="white" stroke-width="2.33844" stroke-miterlimit="10"/>
<path opacity="0.1" d="M931.567 654.703H847.383V736.314H931.567V654.703Z" stroke="white" stroke-width="2.33844" stroke-miterlimit="10"/>
<path opacity="0.1" d="M1016.31 654.703H932.129V736.314H1016.31V654.703Z" stroke="white" stroke-width="2.33844" stroke-miterlimit="10"/>
<path opacity="0.1" d="M1101.04 654.703H1016.86V736.314H1101.04V654.703Z" stroke="white" stroke-width="2.33844" stroke-miterlimit="10"/>
<path opacity="0.1" d="M1185.79 654.703H1101.6V736.314H1185.79V654.703Z" stroke="white" stroke-width="2.33844" stroke-miterlimit="10"/>
<path opacity="0.1" d="M1270.52 654.703H1186.33V736.314H1270.52V654.703Z" stroke="white" stroke-width="2.33844" stroke-miterlimit="10"/>
<path opacity="0.1" d="M1355.25 654.703H1271.07V736.314H1355.25V654.703Z" stroke="white" stroke-width="2.33844" stroke-miterlimit="10"/>
<path opacity="0.1" d="M1440 654.703H1355.82V736.314H1440V654.703Z" stroke="white" stroke-width="2.33844" stroke-miterlimit="10"/>
<path opacity="0.1" d="M84.184 736.555H0V818.165H84.184V736.555Z" stroke="white" stroke-width="2.33844" stroke-miterlimit="10"/>
<path opacity="0.1" d="M168.93 736.555H84.7461V818.165H168.93V736.555Z" stroke="white" stroke-width="2.33844" stroke-miterlimit="10"/>
<path opacity="0.1" d="M253.676 736.555H169.492V818.165H253.676V736.555Z" stroke="white" stroke-width="2.33844" stroke-miterlimit="10"/>
<path opacity="0.1" d="M338.403 736.555H254.219V818.165H338.403V736.555Z" stroke="white" stroke-width="2.33844" stroke-miterlimit="10"/>
<path opacity="0.1" d="M423.145 736.555H338.961V818.165H423.145V736.555Z" stroke="white" stroke-width="2.33844" stroke-miterlimit="10"/>
<path opacity="0.1" d="M507.872 736.555H423.688V818.165H507.872V736.555Z" stroke="white" stroke-width="2.33844" stroke-miterlimit="10"/>
<path opacity="0.1" d="M592.618 736.555H508.434V818.165H592.618V736.555Z" stroke="white" stroke-width="2.33844" stroke-miterlimit="10"/>
<path opacity="0.1" d="M677.348 736.555H593.164V818.165H677.348V736.555Z" stroke="white" stroke-width="2.33844" stroke-miterlimit="10"/>
<path opacity="0.1" d="M762.098 736.555H677.914V818.165H762.098V736.555Z" stroke="white" stroke-width="2.33844" stroke-miterlimit="10"/>
<path opacity="0.1" d="M846.84 736.555H762.656V818.165H846.84V736.555Z" stroke="white" stroke-width="2.33844" stroke-miterlimit="10"/>
<path opacity="0.1" d="M931.567 736.555H847.383V818.165H931.567V736.555Z" stroke="white" stroke-width="2.33844" stroke-miterlimit="10"/>
<path opacity="0.1" d="M1016.31 736.555H932.129V818.165H1016.31V736.555Z" stroke="white" stroke-width="2.33844" stroke-miterlimit="10"/>
<path opacity="0.1" d="M1101.04 736.555H1016.86V818.165H1101.04V736.555Z" stroke="white" stroke-width="2.33844" stroke-miterlimit="10"/>
<path opacity="0.1" d="M1185.79 736.555H1101.6V818.165H1185.79V736.555Z" stroke="white" stroke-width="2.33844" stroke-miterlimit="10"/>
<path opacity="0.1" d="M1270.52 736.555H1186.33V818.165H1270.52V736.555Z" stroke="white" stroke-width="2.33844" stroke-miterlimit="10"/>
<path opacity="0.1" d="M1355.25 736.555H1271.07V818.165H1355.25V736.555Z" stroke="white" stroke-width="2.33844" stroke-miterlimit="10"/>
<path opacity="0.1" d="M1440 736.555H1355.82V818.165H1440V736.555Z" stroke="white" stroke-width="2.33844" stroke-miterlimit="10"/>
<path opacity="0.1" d="M84.184 818.391H0V900.001H84.184V818.391Z" stroke="white" stroke-width="2.33844" stroke-miterlimit="10"/>
<path opacity="0.1" d="M168.93 818.391H84.7461V900.001H168.93V818.391Z" stroke="white" stroke-width="2.33844" stroke-miterlimit="10"/>
<path opacity="0.1" d="M253.676 818.391H169.492V900.001H253.676V818.391Z" stroke="white" stroke-width="2.33844" stroke-miterlimit="10"/>
<path opacity="0.1" d="M338.403 818.391H254.219V900.001H338.403V818.391Z" stroke="white" stroke-width="2.33844" stroke-miterlimit="10"/>
<path opacity="0.1" d="M423.145 818.391H338.961V900.001H423.145V818.391Z" stroke="white" stroke-width="2.33844" stroke-miterlimit="10"/>
<path opacity="0.1" d="M507.872 818.391H423.688V900.001H507.872V818.391Z" stroke="white" stroke-width="2.33844" stroke-miterlimit="10"/>
<path opacity="0.1" d="M592.618 818.391H508.434V900.001H592.618V818.391Z" stroke="white" stroke-width="2.33844" stroke-miterlimit="10"/>
<path opacity="0.1" d="M677.348 818.391H593.164V900.001H677.348V818.391Z" stroke="white" stroke-width="2.33844" stroke-miterlimit="10"/>
<path opacity="0.1" d="M762.098 818.391H677.914V900.001H762.098V818.391Z" stroke="white" stroke-width="2.33844" stroke-miterlimit="10"/>
<path opacity="0.1" d="M846.84 818.391H762.656V900.001H846.84V818.391Z" stroke="white" stroke-width="2.33844" stroke-miterlimit="10"/>
<path opacity="0.1" d="M931.567 818.391H847.383V900.001H931.567V818.391Z" stroke="white" stroke-width="2.33844" stroke-miterlimit="10"/>
<path opacity="0.1" d="M1016.31 818.391H932.129V900.001H1016.31V818.391Z" stroke="white" stroke-width="2.33844" stroke-miterlimit="10"/>
<path opacity="0.1" d="M1101.04 818.391H1016.86V900.001H1101.04V818.391Z" stroke="white" stroke-width="2.33844" stroke-miterlimit="10"/>
<path opacity="0.1" d="M1185.79 818.391H1101.6V900.001H1185.79V818.391Z" stroke="white" stroke-width="2.33844" stroke-miterlimit="10"/>
<path opacity="0.1" d="M1270.52 818.391H1186.33V900.001H1270.52V818.391Z" stroke="white" stroke-width="2.33844" stroke-miterlimit="10"/>
<path opacity="0.1" d="M1355.25 818.391H1271.07V900.001H1355.25V818.391Z" stroke="white" stroke-width="2.33844" stroke-miterlimit="10"/>
<path opacity="0.1" d="M1440 818.391H1355.82V900.001H1440V818.391Z" stroke="white" stroke-width="2.33844" stroke-miterlimit="10"/>
<rect width="1440" height="900" fill="url(#paint0_linear_702_2154)"/>
</g>
<defs>
<linearGradient id="paint0_linear_702_2154" x1="720" y1="0" x2="720" y2="900" gradientUnits="userSpaceOnUse">
<stop offset="0.80726" stop-color="#212121" stop-opacity="0"/>
<stop offset="0.986409" stop-color="#212121"/>
</linearGradient>
</defs>
</svg>
