<svg width="1444" height="904" viewBox="0 0 1444 904" fill="none" xmlns="http://www.w3.org/2000/svg">
<g opacity="0.15">
<path opacity="0.1" d="M86.2895 2H2.10547V83.6106H86.2895V2Z" stroke="white" stroke-width="2.33844" stroke-miterlimit="10"/>
<path opacity="0.1" d="M86.2895 83.8359H2.10547V165.447H86.2895V83.8359Z" stroke="white" stroke-width="2.33844" stroke-miterlimit="10"/>
<path opacity="0.1" d="M86.2895 165.688H2.10547V247.298H86.2895V165.688Z" stroke="white" stroke-width="2.33844" stroke-miterlimit="10"/>
<path opacity="0.1" d="M86.2895 247.508H2.10547V329.118H86.2895V247.508Z" stroke="white" stroke-width="2.33844" stroke-miterlimit="10"/>
<path opacity="0.1" d="M86.2895 329.359H2.10547V410.97H86.2895V329.359Z" stroke="white" stroke-width="2.33844" stroke-miterlimit="10"/>
<path opacity="0.1" d="M86.2895 411.195H2.10547V492.806H86.2895V411.195Z" stroke="white" stroke-width="2.33844" stroke-miterlimit="10"/>
<path opacity="0.1" d="M86.2895 493.016H2.10547V574.626H86.2895V493.016Z" stroke="white" stroke-width="2.33844" stroke-miterlimit="10"/>
<path opacity="0.1" d="M86.2895 574.867H2.10547V656.478H86.2895V574.867Z" stroke="white" stroke-width="2.33844" stroke-miterlimit="10"/>
<path opacity="0.1" d="M171.036 2H86.8516V83.6106H171.036V2Z" stroke="white" stroke-width="2.33844" stroke-miterlimit="10"/>
<path opacity="0.1" d="M171.036 83.8359H86.8516V165.447H171.036V83.8359Z" stroke="white" stroke-width="2.33844" stroke-miterlimit="10"/>
<path opacity="0.1" d="M171.036 165.688H86.8516V247.298H171.036V165.688Z" stroke="white" stroke-width="2.33844" stroke-miterlimit="10"/>
<path opacity="0.1" d="M171.036 247.508H86.8516V329.118H171.036V247.508Z" stroke="white" stroke-width="2.33844" stroke-miterlimit="10"/>
<path opacity="0.1" d="M171.036 329.359H86.8516V410.97H171.036V329.359Z" stroke="white" stroke-width="2.33844" stroke-miterlimit="10"/>
<path opacity="0.1" d="M171.036 411.195H86.8516V492.806H171.036V411.195Z" stroke="white" stroke-width="2.33844" stroke-miterlimit="10"/>
<path opacity="0.1" d="M171.036 493.016H86.8516V574.626H171.036V493.016Z" stroke="white" stroke-width="2.33844" stroke-miterlimit="10"/>
<path opacity="0.1" d="M171.036 574.867H86.8516V656.478H171.036V574.867Z" stroke="white" stroke-width="2.33844" stroke-miterlimit="10"/>
<path opacity="0.1" d="M255.782 2H171.598V83.6106H255.782V2Z" stroke="white" stroke-width="2.33844" stroke-miterlimit="10"/>
<path opacity="0.1" d="M255.782 83.8359H171.598V165.447H255.782V83.8359Z" stroke="white" stroke-width="2.33844" stroke-miterlimit="10"/>
<path opacity="0.1" d="M255.782 165.688H171.598V247.298H255.782V165.688Z" stroke="white" stroke-width="2.33844" stroke-miterlimit="10"/>
<path opacity="0.1" d="M255.782 247.508H171.598V329.118H255.782V247.508Z" stroke="white" stroke-width="2.33844" stroke-miterlimit="10"/>
<path opacity="0.1" d="M255.782 329.359H171.598V410.97H255.782V329.359Z" stroke="white" stroke-width="2.33844" stroke-miterlimit="10"/>
<path opacity="0.1" d="M255.782 411.195H171.598V492.806H255.782V411.195Z" stroke="white" stroke-width="2.33844" stroke-miterlimit="10"/>
<path opacity="0.1" d="M255.782 493.016H171.598V574.626H255.782V493.016Z" stroke="white" stroke-width="2.33844" stroke-miterlimit="10"/>
<path opacity="0.1" d="M255.782 574.867H171.598V656.478H255.782V574.867Z" stroke="white" stroke-width="2.33844" stroke-miterlimit="10"/>
<path opacity="0.1" d="M340.508 2H256.324V83.6106H340.508V2Z" stroke="white" stroke-width="2.33844" stroke-miterlimit="10"/>
<path opacity="0.1" d="M340.508 83.8359H256.324V165.447H340.508V83.8359Z" stroke="white" stroke-width="2.33844" stroke-miterlimit="10"/>
<path opacity="0.1" d="M340.508 165.688H256.324V247.298H340.508V165.688Z" stroke="white" stroke-width="2.33844" stroke-miterlimit="10"/>
<path opacity="0.1" d="M340.508 247.508H256.324V329.118H340.508V247.508Z" stroke="white" stroke-width="2.33844" stroke-miterlimit="10"/>
<path opacity="0.1" d="M340.508 329.359H256.324V410.97H340.508V329.359Z" stroke="white" stroke-width="2.33844" stroke-miterlimit="10"/>
<path opacity="0.1" d="M340.508 411.195H256.324V492.806H340.508V411.195Z" stroke="white" stroke-width="2.33844" stroke-miterlimit="10"/>
<path opacity="0.1" d="M340.508 493.016H256.324V574.626H340.508V493.016Z" stroke="white" stroke-width="2.33844" stroke-miterlimit="10"/>
<path opacity="0.1" d="M340.508 574.867H256.324V656.478H340.508V574.867Z" stroke="white" stroke-width="2.33844" stroke-miterlimit="10"/>
<path opacity="0.1" d="M425.25 2H341.066V83.6106H425.25V2Z" stroke="white" stroke-width="2.33844" stroke-miterlimit="10"/>
<path opacity="0.1" d="M425.25 83.8359H341.066V165.447H425.25V83.8359Z" stroke="white" stroke-width="2.33844" stroke-miterlimit="10"/>
<path opacity="0.1" d="M425.25 165.688H341.066V247.298H425.25V165.688Z" stroke="white" stroke-width="2.33844" stroke-miterlimit="10"/>
<path opacity="0.1" d="M425.25 247.508H341.066V329.118H425.25V247.508Z" stroke="white" stroke-width="2.33844" stroke-miterlimit="10"/>
<path opacity="0.1" d="M425.25 329.359H341.066V410.97H425.25V329.359Z" stroke="white" stroke-width="2.33844" stroke-miterlimit="10"/>
<path opacity="0.1" d="M425.25 411.195H341.066V492.806H425.25V411.195Z" stroke="white" stroke-width="2.33844" stroke-miterlimit="10"/>
<path opacity="0.1" d="M425.25 493.016H341.066V574.626H425.25V493.016Z" stroke="white" stroke-width="2.33844" stroke-miterlimit="10"/>
<path opacity="0.1" d="M425.25 574.867H341.066V656.478H425.25V574.867Z" stroke="white" stroke-width="2.33844" stroke-miterlimit="10"/>
<path opacity="0.1" d="M509.977 2H425.793V83.6106H509.977V2Z" stroke="white" stroke-width="2.33844" stroke-miterlimit="10"/>
<path opacity="0.1" d="M509.977 83.8359H425.793V165.447H509.977V83.8359Z" stroke="white" stroke-width="2.33844" stroke-miterlimit="10"/>
<path opacity="0.1" d="M509.977 165.688H425.793V247.298H509.977V165.688Z" stroke="white" stroke-width="2.33844" stroke-miterlimit="10"/>
<path opacity="0.1" d="M509.977 247.508H425.793V329.118H509.977V247.508Z" stroke="white" stroke-width="2.33844" stroke-miterlimit="10"/>
<path opacity="0.1" d="M509.977 329.359H425.793V410.97H509.977V329.359Z" stroke="white" stroke-width="2.33844" stroke-miterlimit="10"/>
<path opacity="0.1" d="M509.977 411.195H425.793V492.806H509.977V411.195Z" stroke="white" stroke-width="2.33844" stroke-miterlimit="10"/>
<path opacity="0.1" d="M509.977 493.016H425.793V574.626H509.977V493.016Z" stroke="white" stroke-width="2.33844" stroke-miterlimit="10"/>
<path opacity="0.1" d="M509.977 574.867H425.793V656.478H509.977V574.867Z" stroke="white" stroke-width="2.33844" stroke-miterlimit="10"/>
<path opacity="0.1" d="M594.723 2H510.539V83.6106H594.723V2Z" stroke="white" stroke-width="2.33844" stroke-miterlimit="10"/>
<path opacity="0.1" d="M594.723 83.8359H510.539V165.447H594.723V83.8359Z" stroke="white" stroke-width="2.33844" stroke-miterlimit="10"/>
<path opacity="0.1" d="M594.723 165.688H510.539V247.298H594.723V165.688Z" stroke="white" stroke-width="2.33844" stroke-miterlimit="10"/>
<path opacity="0.1" d="M594.723 247.508H510.539V329.118H594.723V247.508Z" stroke="white" stroke-width="2.33844" stroke-miterlimit="10"/>
<path opacity="0.1" d="M594.723 329.359H510.539V410.97H594.723V329.359Z" stroke="white" stroke-width="2.33844" stroke-miterlimit="10"/>
<path opacity="0.1" d="M594.723 411.195H510.539V492.806H594.723V411.195Z" stroke="white" stroke-width="2.33844" stroke-miterlimit="10"/>
<path opacity="0.1" d="M594.723 493.016H510.539V574.626H594.723V493.016Z" stroke="white" stroke-width="2.33844" stroke-miterlimit="10"/>
<path opacity="0.1" d="M594.723 574.867H510.539V656.478H594.723V574.867Z" stroke="white" stroke-width="2.33844" stroke-miterlimit="10"/>
<path opacity="0.1" d="M679.454 2H595.27V83.6106H679.454V2Z" stroke="white" stroke-width="2.33844" stroke-miterlimit="10"/>
<path opacity="0.1" d="M679.454 83.8359H595.27V165.447H679.454V83.8359Z" stroke="white" stroke-width="2.33844" stroke-miterlimit="10"/>
<path opacity="0.1" d="M679.454 165.688H595.27V247.298H679.454V165.688Z" stroke="white" stroke-width="2.33844" stroke-miterlimit="10"/>
<path opacity="0.1" d="M679.454 247.508H595.27V329.118H679.454V247.508Z" stroke="white" stroke-width="2.33844" stroke-miterlimit="10"/>
<path opacity="0.1" d="M679.454 329.359H595.27V410.97H679.454V329.359Z" stroke="white" stroke-width="2.33844" stroke-miterlimit="10"/>
<path opacity="0.1" d="M679.454 411.195H595.27V492.806H679.454V411.195Z" stroke="white" stroke-width="2.33844" stroke-miterlimit="10"/>
<path opacity="0.1" d="M679.454 493.016H595.27V574.626H679.454V493.016Z" stroke="white" stroke-width="2.33844" stroke-miterlimit="10"/>
<path opacity="0.1" d="M679.454 574.867H595.27V656.478H679.454V574.867Z" stroke="white" stroke-width="2.33844" stroke-miterlimit="10"/>
<path opacity="0.1" d="M764.204 2H680.02V83.6106H764.204V2Z" stroke="white" stroke-width="2.33844" stroke-miterlimit="10"/>
<path opacity="0.1" d="M764.204 83.8359H680.02V165.447H764.204V83.8359Z" stroke="white" stroke-width="2.33844" stroke-miterlimit="10"/>
<path opacity="0.1" d="M764.204 165.688H680.02V247.298H764.204V165.688Z" stroke="white" stroke-width="2.33844" stroke-miterlimit="10"/>
<path opacity="0.1" d="M764.204 247.508H680.02V329.118H764.204V247.508Z" stroke="white" stroke-width="2.33844" stroke-miterlimit="10"/>
<path opacity="0.1" d="M764.204 329.359H680.02V410.97H764.204V329.359Z" stroke="white" stroke-width="2.33844" stroke-miterlimit="10"/>
<path opacity="0.1" d="M764.204 411.195H680.02V492.806H764.204V411.195Z" stroke="white" stroke-width="2.33844" stroke-miterlimit="10"/>
<path opacity="0.1" d="M764.204 493.016H680.02V574.626H764.204V493.016Z" stroke="white" stroke-width="2.33844" stroke-miterlimit="10"/>
<path opacity="0.1" d="M764.204 574.867H680.02V656.478H764.204V574.867Z" stroke="white" stroke-width="2.33844" stroke-miterlimit="10"/>
<path opacity="0.1" d="M848.946 2H764.762V83.6106H848.946V2Z" stroke="white" stroke-width="2.33844" stroke-miterlimit="10"/>
<path opacity="0.1" d="M848.946 83.8359H764.762V165.447H848.946V83.8359Z" stroke="white" stroke-width="2.33844" stroke-miterlimit="10"/>
<path opacity="0.1" d="M848.946 165.688H764.762V247.298H848.946V165.688Z" stroke="white" stroke-width="2.33844" stroke-miterlimit="10"/>
<path opacity="0.1" d="M848.946 247.508H764.762V329.118H848.946V247.508Z" stroke="white" stroke-width="2.33844" stroke-miterlimit="10"/>
<path opacity="0.1" d="M848.946 329.359H764.762V410.97H848.946V329.359Z" stroke="white" stroke-width="2.33844" stroke-miterlimit="10"/>
<path opacity="0.1" d="M848.946 411.195H764.762V492.806H848.946V411.195Z" stroke="white" stroke-width="2.33844" stroke-miterlimit="10"/>
<path opacity="0.1" d="M848.946 493.016H764.762V574.626H848.946V493.016Z" stroke="white" stroke-width="2.33844" stroke-miterlimit="10"/>
<path opacity="0.1" d="M848.946 574.867H764.762V656.478H848.946V574.867Z" stroke="white" stroke-width="2.33844" stroke-miterlimit="10"/>
<path opacity="0.1" d="M933.672 2H849.488V83.6106H933.672V2Z" stroke="white" stroke-width="2.33844" stroke-miterlimit="10"/>
<path opacity="0.1" d="M933.672 83.8359H849.488V165.447H933.672V83.8359Z" stroke="white" stroke-width="2.33844" stroke-miterlimit="10"/>
<path opacity="0.1" d="M933.672 165.688H849.488V247.298H933.672V165.688Z" stroke="white" stroke-width="2.33844" stroke-miterlimit="10"/>
<path opacity="0.1" d="M933.672 247.508H849.488V329.118H933.672V247.508Z" stroke="white" stroke-width="2.33844" stroke-miterlimit="10"/>
<path opacity="0.1" d="M933.672 329.359H849.488V410.97H933.672V329.359Z" stroke="white" stroke-width="2.33844" stroke-miterlimit="10"/>
<path opacity="0.1" d="M933.672 411.195H849.488V492.806H933.672V411.195Z" stroke="white" stroke-width="2.33844" stroke-miterlimit="10"/>
<path opacity="0.1" d="M933.672 493.016H849.488V574.626H933.672V493.016Z" stroke="white" stroke-width="2.33844" stroke-miterlimit="10"/>
<path opacity="0.1" d="M933.672 574.867H849.488V656.478H933.672V574.867Z" stroke="white" stroke-width="2.33844" stroke-miterlimit="10"/>
<path opacity="0.1" d="M1018.42 2H934.234V83.6106H1018.42V2Z" stroke="white" stroke-width="2.33844" stroke-miterlimit="10"/>
<path opacity="0.1" d="M1018.42 83.8359H934.234V165.447H1018.42V83.8359Z" stroke="white" stroke-width="2.33844" stroke-miterlimit="10"/>
<path opacity="0.1" d="M1018.42 165.688H934.234V247.298H1018.42V165.688Z" stroke="white" stroke-width="2.33844" stroke-miterlimit="10"/>
<path opacity="0.1" d="M1018.42 247.508H934.234V329.118H1018.42V247.508Z" stroke="white" stroke-width="2.33844" stroke-miterlimit="10"/>
<path opacity="0.1" d="M1018.42 329.359H934.234V410.97H1018.42V329.359Z" stroke="white" stroke-width="2.33844" stroke-miterlimit="10"/>
<path opacity="0.1" d="M1018.42 411.195H934.234V492.806H1018.42V411.195Z" stroke="white" stroke-width="2.33844" stroke-miterlimit="10"/>
<path opacity="0.1" d="M1018.42 493.016H934.234V574.626H1018.42V493.016Z" stroke="white" stroke-width="2.33844" stroke-miterlimit="10"/>
<path opacity="0.1" d="M1018.42 574.867H934.234V656.478H1018.42V574.867Z" stroke="white" stroke-width="2.33844" stroke-miterlimit="10"/>
<path opacity="0.1" d="M1103.14 2H1018.96V83.6106H1103.14V2Z" stroke="white" stroke-width="2.33844" stroke-miterlimit="10"/>
<path opacity="0.1" d="M1103.14 83.8359H1018.96V165.447H1103.14V83.8359Z" stroke="white" stroke-width="2.33844" stroke-miterlimit="10"/>
<path opacity="0.1" d="M1103.14 165.688H1018.96V247.298H1103.14V165.688Z" stroke="white" stroke-width="2.33844" stroke-miterlimit="10"/>
<path opacity="0.1" d="M1103.14 247.508H1018.96V329.118H1103.14V247.508Z" stroke="white" stroke-width="2.33844" stroke-miterlimit="10"/>
<path opacity="0.1" d="M1103.14 329.359H1018.96V410.97H1103.14V329.359Z" stroke="white" stroke-width="2.33844" stroke-miterlimit="10"/>
<path opacity="0.1" d="M1103.14 411.195H1018.96V492.806H1103.14V411.195Z" stroke="white" stroke-width="2.33844" stroke-miterlimit="10"/>
<path opacity="0.1" d="M1103.14 493.016H1018.96V574.626H1103.14V493.016Z" stroke="white" stroke-width="2.33844" stroke-miterlimit="10"/>
<path opacity="0.1" d="M1103.14 574.867H1018.96V656.478H1103.14V574.867Z" stroke="white" stroke-width="2.33844" stroke-miterlimit="10"/>
<path opacity="0.1" d="M1187.89 2H1103.71V83.6106H1187.89V2Z" stroke="white" stroke-width="2.33844" stroke-miterlimit="10"/>
<path opacity="0.1" d="M1187.89 83.8359H1103.71V165.447H1187.89V83.8359Z" stroke="white" stroke-width="2.33844" stroke-miterlimit="10"/>
<path opacity="0.1" d="M1187.89 165.688H1103.71V247.298H1187.89V165.688Z" stroke="white" stroke-width="2.33844" stroke-miterlimit="10"/>
<path opacity="0.1" d="M1187.89 247.508H1103.71V329.118H1187.89V247.508Z" stroke="white" stroke-width="2.33844" stroke-miterlimit="10"/>
<path opacity="0.1" d="M1187.89 329.359H1103.71V410.97H1187.89V329.359Z" stroke="white" stroke-width="2.33844" stroke-miterlimit="10"/>
<path opacity="0.1" d="M1187.89 411.195H1103.71V492.806H1187.89V411.195Z" stroke="white" stroke-width="2.33844" stroke-miterlimit="10"/>
<path opacity="0.1" d="M1187.89 493.016H1103.71V574.626H1187.89V493.016Z" stroke="white" stroke-width="2.33844" stroke-miterlimit="10"/>
<path opacity="0.1" d="M1187.89 574.867H1103.71V656.478H1187.89V574.867Z" stroke="white" stroke-width="2.33844" stroke-miterlimit="10"/>
<path opacity="0.1" d="M1272.62 2H1188.44V83.6106H1272.62V2Z" stroke="white" stroke-width="2.33844" stroke-miterlimit="10"/>
<path opacity="0.1" d="M1272.62 83.8359H1188.44V165.447H1272.62V83.8359Z" stroke="white" stroke-width="2.33844" stroke-miterlimit="10"/>
<path opacity="0.1" d="M1272.62 165.688H1188.44V247.298H1272.62V165.688Z" stroke="white" stroke-width="2.33844" stroke-miterlimit="10"/>
<path opacity="0.1" d="M1272.62 247.508H1188.44V329.118H1272.62V247.508Z" stroke="white" stroke-width="2.33844" stroke-miterlimit="10"/>
<path opacity="0.1" d="M1272.62 329.359H1188.44V410.97H1272.62V329.359Z" stroke="white" stroke-width="2.33844" stroke-miterlimit="10"/>
<path opacity="0.1" d="M1272.62 411.195H1188.44V492.806H1272.62V411.195Z" stroke="white" stroke-width="2.33844" stroke-miterlimit="10"/>
<path opacity="0.1" d="M1272.62 493.016H1188.44V574.626H1272.62V493.016Z" stroke="white" stroke-width="2.33844" stroke-miterlimit="10"/>
<path opacity="0.1" d="M1272.62 574.867H1188.44V656.478H1272.62V574.867Z" stroke="white" stroke-width="2.33844" stroke-miterlimit="10"/>
<path opacity="0.1" d="M1357.36 2H1273.18V83.6106H1357.36V2Z" stroke="white" stroke-width="2.33844" stroke-miterlimit="10"/>
<path opacity="0.1" d="M1357.36 83.8359H1273.18V165.447H1357.36V83.8359Z" stroke="white" stroke-width="2.33844" stroke-miterlimit="10"/>
<path opacity="0.1" d="M1357.36 165.688H1273.18V247.298H1357.36V165.688Z" stroke="white" stroke-width="2.33844" stroke-miterlimit="10"/>
<path opacity="0.1" d="M1357.36 247.508H1273.18V329.118H1357.36V247.508Z" stroke="white" stroke-width="2.33844" stroke-miterlimit="10"/>
<path opacity="0.1" d="M1357.36 329.359H1273.18V410.97H1357.36V329.359Z" stroke="white" stroke-width="2.33844" stroke-miterlimit="10"/>
<path opacity="0.1" d="M1357.36 411.195H1273.18V492.806H1357.36V411.195Z" stroke="white" stroke-width="2.33844" stroke-miterlimit="10"/>
<path opacity="0.1" d="M1357.36 493.016H1273.18V574.626H1357.36V493.016Z" stroke="white" stroke-width="2.33844" stroke-miterlimit="10"/>
<path opacity="0.1" d="M1357.36 574.867H1273.18V656.478H1357.36V574.867Z" stroke="white" stroke-width="2.33844" stroke-miterlimit="10"/>
<path opacity="0.1" d="M1442.11 2H1357.92V83.6106H1442.11V2Z" stroke="white" stroke-width="2.33844" stroke-miterlimit="10"/>
<path opacity="0.1" d="M1442.11 83.8359H1357.92V165.447H1442.11V83.8359Z" stroke="white" stroke-width="2.33844" stroke-miterlimit="10"/>
<path opacity="0.1" d="M1442.11 165.688H1357.92V247.298H1442.11V165.688Z" stroke="white" stroke-width="2.33844" stroke-miterlimit="10"/>
<path opacity="0.1" d="M1442.11 247.508H1357.92V329.118H1442.11V247.508Z" stroke="white" stroke-width="2.33844" stroke-miterlimit="10"/>
<path opacity="0.1" d="M1442.11 329.359H1357.92V410.97H1442.11V329.359Z" stroke="white" stroke-width="2.33844" stroke-miterlimit="10"/>
<path opacity="0.1" d="M1442.11 411.195H1357.92V492.806H1442.11V411.195Z" stroke="white" stroke-width="2.33844" stroke-miterlimit="10"/>
<path opacity="0.1" d="M1442.11 493.016H1357.92V574.626H1442.11V493.016Z" stroke="white" stroke-width="2.33844" stroke-miterlimit="10"/>
<path opacity="0.1" d="M1442.11 574.867H1357.92V656.478H1442.11V574.867Z" stroke="white" stroke-width="2.33844" stroke-miterlimit="10"/>
<path opacity="0.1" d="M86.2895 656.703H2.10547V738.314H86.2895V656.703Z" stroke="white" stroke-width="2.33844" stroke-miterlimit="10"/>
<path opacity="0.1" d="M171.036 656.703H86.8516V738.314H171.036V656.703Z" stroke="white" stroke-width="2.33844" stroke-miterlimit="10"/>
<path opacity="0.1" d="M255.782 656.703H171.598V738.314H255.782V656.703Z" stroke="white" stroke-width="2.33844" stroke-miterlimit="10"/>
<path opacity="0.1" d="M340.508 656.703H256.324V738.314H340.508V656.703Z" stroke="white" stroke-width="2.33844" stroke-miterlimit="10"/>
<path opacity="0.1" d="M425.25 656.703H341.066V738.314H425.25V656.703Z" stroke="white" stroke-width="2.33844" stroke-miterlimit="10"/>
<path opacity="0.1" d="M509.977 656.703H425.793V738.314H509.977V656.703Z" stroke="white" stroke-width="2.33844" stroke-miterlimit="10"/>
<path opacity="0.1" d="M594.723 656.703H510.539V738.314H594.723V656.703Z" stroke="white" stroke-width="2.33844" stroke-miterlimit="10"/>
<path opacity="0.1" d="M679.454 656.703H595.27V738.314H679.454V656.703Z" stroke="white" stroke-width="2.33844" stroke-miterlimit="10"/>
<path opacity="0.1" d="M764.204 656.703H680.02V738.314H764.204V656.703Z" stroke="white" stroke-width="2.33844" stroke-miterlimit="10"/>
<path opacity="0.1" d="M848.946 656.703H764.762V738.314H848.946V656.703Z" stroke="white" stroke-width="2.33844" stroke-miterlimit="10"/>
<path opacity="0.1" d="M933.672 656.703H849.488V738.314H933.672V656.703Z" stroke="white" stroke-width="2.33844" stroke-miterlimit="10"/>
<path opacity="0.1" d="M1018.42 656.703H934.234V738.314H1018.42V656.703Z" stroke="white" stroke-width="2.33844" stroke-miterlimit="10"/>
<path opacity="0.1" d="M1103.14 656.703H1018.96V738.314H1103.14V656.703Z" stroke="white" stroke-width="2.33844" stroke-miterlimit="10"/>
<path opacity="0.1" d="M1187.89 656.703H1103.71V738.314H1187.89V656.703Z" stroke="white" stroke-width="2.33844" stroke-miterlimit="10"/>
<path opacity="0.1" d="M1272.62 656.703H1188.44V738.314H1272.62V656.703Z" stroke="white" stroke-width="2.33844" stroke-miterlimit="10"/>
<path opacity="0.1" d="M1357.36 656.703H1273.18V738.314H1357.36V656.703Z" stroke="white" stroke-width="2.33844" stroke-miterlimit="10"/>
<path opacity="0.1" d="M1442.11 656.703H1357.92V738.314H1442.11V656.703Z" stroke="white" stroke-width="2.33844" stroke-miterlimit="10"/>
<path opacity="0.1" d="M86.2895 738.555H2.10547V820.165H86.2895V738.555Z" stroke="white" stroke-width="2.33844" stroke-miterlimit="10"/>
<path opacity="0.1" d="M171.036 738.555H86.8516V820.165H171.036V738.555Z" stroke="white" stroke-width="2.33844" stroke-miterlimit="10"/>
<path opacity="0.1" d="M255.782 738.555H171.598V820.165H255.782V738.555Z" stroke="white" stroke-width="2.33844" stroke-miterlimit="10"/>
<path opacity="0.1" d="M340.508 738.555H256.324V820.165H340.508V738.555Z" stroke="white" stroke-width="2.33844" stroke-miterlimit="10"/>
<path opacity="0.1" d="M425.25 738.555H341.066V820.165H425.25V738.555Z" stroke="white" stroke-width="2.33844" stroke-miterlimit="10"/>
<path opacity="0.1" d="M509.977 738.555H425.793V820.165H509.977V738.555Z" stroke="white" stroke-width="2.33844" stroke-miterlimit="10"/>
<path opacity="0.1" d="M594.723 738.555H510.539V820.165H594.723V738.555Z" stroke="white" stroke-width="2.33844" stroke-miterlimit="10"/>
<path opacity="0.1" d="M679.454 738.555H595.27V820.165H679.454V738.555Z" stroke="white" stroke-width="2.33844" stroke-miterlimit="10"/>
<path opacity="0.1" d="M764.204 738.555H680.02V820.165H764.204V738.555Z" stroke="white" stroke-width="2.33844" stroke-miterlimit="10"/>
<path opacity="0.1" d="M848.946 738.555H764.762V820.165H848.946V738.555Z" stroke="white" stroke-width="2.33844" stroke-miterlimit="10"/>
<path opacity="0.1" d="M933.672 738.555H849.488V820.165H933.672V738.555Z" stroke="white" stroke-width="2.33844" stroke-miterlimit="10"/>
<path opacity="0.1" d="M1018.42 738.555H934.234V820.165H1018.42V738.555Z" stroke="white" stroke-width="2.33844" stroke-miterlimit="10"/>
<path opacity="0.1" d="M1103.14 738.555H1018.96V820.165H1103.14V738.555Z" stroke="white" stroke-width="2.33844" stroke-miterlimit="10"/>
<path opacity="0.1" d="M1187.89 738.555H1103.71V820.165H1187.89V738.555Z" stroke="white" stroke-width="2.33844" stroke-miterlimit="10"/>
<path opacity="0.1" d="M1272.62 738.555H1188.44V820.165H1272.62V738.555Z" stroke="white" stroke-width="2.33844" stroke-miterlimit="10"/>
<path opacity="0.1" d="M1357.36 738.555H1273.18V820.165H1357.36V738.555Z" stroke="white" stroke-width="2.33844" stroke-miterlimit="10"/>
<path opacity="0.1" d="M1442.11 738.555H1357.92V820.165H1442.11V738.555Z" stroke="white" stroke-width="2.33844" stroke-miterlimit="10"/>
<path opacity="0.1" d="M86.2895 820.391H2.10547V902.001H86.2895V820.391Z" stroke="white" stroke-width="2.33844" stroke-miterlimit="10"/>
<path opacity="0.1" d="M171.036 820.391H86.8516V902.001H171.036V820.391Z" stroke="white" stroke-width="2.33844" stroke-miterlimit="10"/>
<path opacity="0.1" d="M255.782 820.391H171.598V902.001H255.782V820.391Z" stroke="white" stroke-width="2.33844" stroke-miterlimit="10"/>
<path opacity="0.1" d="M340.508 820.391H256.324V902.001H340.508V820.391Z" stroke="white" stroke-width="2.33844" stroke-miterlimit="10"/>
<path opacity="0.1" d="M425.25 820.391H341.066V902.001H425.25V820.391Z" stroke="white" stroke-width="2.33844" stroke-miterlimit="10"/>
<path opacity="0.1" d="M509.977 820.391H425.793V902.001H509.977V820.391Z" stroke="white" stroke-width="2.33844" stroke-miterlimit="10"/>
<path opacity="0.1" d="M594.723 820.391H510.539V902.001H594.723V820.391Z" stroke="white" stroke-width="2.33844" stroke-miterlimit="10"/>
<path opacity="0.1" d="M679.454 820.391H595.27V902.001H679.454V820.391Z" stroke="white" stroke-width="2.33844" stroke-miterlimit="10"/>
<path opacity="0.1" d="M764.204 820.391H680.02V902.001H764.204V820.391Z" stroke="white" stroke-width="2.33844" stroke-miterlimit="10"/>
<path opacity="0.1" d="M848.946 820.391H764.762V902.001H848.946V820.391Z" stroke="white" stroke-width="2.33844" stroke-miterlimit="10"/>
<path opacity="0.1" d="M933.672 820.391H849.488V902.001H933.672V820.391Z" stroke="white" stroke-width="2.33844" stroke-miterlimit="10"/>
<path opacity="0.1" d="M1018.42 820.391H934.234V902.001H1018.42V820.391Z" stroke="white" stroke-width="2.33844" stroke-miterlimit="10"/>
<path opacity="0.1" d="M1103.14 820.391H1018.96V902.001H1103.14V820.391Z" stroke="white" stroke-width="2.33844" stroke-miterlimit="10"/>
<path opacity="0.1" d="M1187.89 820.391H1103.71V902.001H1187.89V820.391Z" stroke="white" stroke-width="2.33844" stroke-miterlimit="10"/>
<path opacity="0.1" d="M1272.62 820.391H1188.44V902.001H1272.62V820.391Z" stroke="white" stroke-width="2.33844" stroke-miterlimit="10"/>
<path opacity="0.1" d="M1357.36 820.391H1273.18V902.001H1357.36V820.391Z" stroke="white" stroke-width="2.33844" stroke-miterlimit="10"/>
<path opacity="0.1" d="M1442.11 820.391H1357.92V902.001H1442.11V820.391Z" stroke="white" stroke-width="2.33844" stroke-miterlimit="10"/>
<rect x="2.10547" y="2" width="1440" height="900" fill="url(#paint0_linear_752_386)"/>
</g>
<defs>
<linearGradient id="paint0_linear_752_386" x1="722.105" y1="2" x2="722.105" y2="902" gradientUnits="userSpaceOnUse">
<stop offset="0.80726" stop-color="#212121" stop-opacity="0"/>
<stop offset="0.986409" stop-color="#212121"/>
</linearGradient>
</defs>
</svg>
