<svg width="43" height="30" viewBox="0 0 43 30" fill="none" xmlns="http://www.w3.org/2000/svg">
<path d="M28.4172 14.9985C28.4172 17.8087 27.5839 20.5558 26.0226 22.8924C24.4614 25.229 22.2423 27.0501 19.646 28.1255C17.0497 29.201 14.1928 29.4823 11.4366 28.9341C8.68045 28.3858 6.14872 27.0326 4.16161 25.0455C2.1745 23.0584 0.821263 20.5267 0.273021 17.7705C-0.275221 15.0143 0.00615613 12.1574 1.08157 9.56111C2.15699 6.96483 3.97814 4.74575 6.31473 3.18449C8.65132 1.62323 11.3984 0.789908 14.2086 0.789907L14.2086 7.89421C12.8035 7.89421 11.43 8.31087 10.2617 9.0915C9.09337 9.87213 8.18279 10.9817 7.64509 12.2798C7.10738 13.5779 6.96669 15.0064 7.24081 16.3845C7.51493 17.7626 8.19155 19.0285 9.18511 20.022C10.1787 21.0156 11.4445 21.6922 12.8226 21.9663C14.2007 22.2404 15.6292 22.0997 16.9273 21.562C18.2254 21.0243 19.335 20.1137 20.1156 18.9454C20.8962 17.7771 21.3129 16.4036 21.3129 14.9985H28.4172Z" fill="white"/>
<path d="M28.4058 29.2063C31.216 29.2063 33.963 28.3729 36.2996 26.8117C38.6362 25.2504 40.4574 23.0313 41.5328 20.4351C42.6082 17.8388 42.8896 14.9819 42.3414 12.2257C41.7931 9.46951 40.4399 6.93778 38.4528 4.95067C36.4657 2.96356 33.9339 1.61033 31.1777 1.06208C28.4215 0.513841 25.5647 0.795219 22.9684 1.87063C20.3721 2.94605 18.153 4.7672 16.5918 7.10379C15.0305 9.44038 14.1972 12.1875 14.1972 14.9977L21.3015 14.9977C21.3015 13.5926 21.7181 12.219 22.4988 11.0507C23.2794 9.88243 24.3889 8.97186 25.6871 8.43415C26.9852 7.89644 28.4136 7.75575 29.7917 8.02987C31.1698 8.304 32.4357 8.98061 33.4293 9.97417C34.4228 10.9677 35.0994 12.2336 35.3736 13.6117C35.6477 14.9898 35.507 16.4182 34.9693 17.7164C34.4316 19.0145 33.521 20.124 32.3527 20.9047C31.1844 21.6853 29.8109 22.102 28.4058 22.102V29.2063Z" fill="#5661F6"/>
</svg>
