<svg width="30" height="30" viewBox="0 0 30 30" fill="none" xmlns="http://www.w3.org/2000/svg">
<circle cx="14.9573" cy="14.9182" r="14.3636" fill="#5661F6"/>
<path d="M17.9533 14.9165C17.9533 16.1005 17.6022 17.2579 16.9444 18.2423C16.2866 19.2268 15.3517 19.9941 14.2578 20.4472C13.1639 20.9003 11.9603 21.0188 10.799 20.7879C9.63775 20.5569 8.57107 19.9867 7.73385 19.1495C6.89664 18.3123 6.32649 17.2456 6.0955 16.0844C5.86451 14.9231 5.98306 13.7194 6.43616 12.6256C6.88926 11.5317 7.65655 10.5967 8.64101 9.93894C9.62548 9.28114 10.7829 8.93004 11.9669 8.93004L11.9669 11.9233C11.3749 11.9233 10.7962 12.0988 10.304 12.4277C9.81172 12.7566 9.42808 13.2241 9.20153 13.771C8.97498 14.318 8.9157 14.9198 9.0312 15.5004C9.14669 16.081 9.43177 16.6144 9.85037 17.033C10.269 17.4516 10.8023 17.7367 11.3829 17.8522C11.9636 17.9677 12.5654 17.9084 13.1123 17.6818C13.6593 17.4553 14.1268 17.0716 14.4557 16.5794C14.7846 16.0872 14.9601 15.5085 14.9601 14.9165H17.9533Z" fill="white"/>
<path d="M17.9485 20.9025C19.1325 20.9025 20.2899 20.5514 21.2744 19.8936C22.2588 19.2358 23.0261 18.3009 23.4792 17.207C23.9323 16.1131 24.0509 14.9095 23.8199 13.7482C23.5889 12.587 23.0188 11.5203 22.1815 10.6831C21.3443 9.84586 20.2776 9.27571 19.1164 9.04472C17.9551 8.81373 16.7515 8.93228 15.6576 9.38538C14.5637 9.83848 13.6288 10.6058 12.971 11.5902C12.3132 12.5747 11.9621 13.7321 11.9621 14.9161L14.9553 14.9161C14.9553 14.3241 15.1308 13.7454 15.4597 13.2532C15.7886 12.7609 16.2561 12.3773 16.803 12.1507C17.35 11.9242 17.9518 11.8649 18.5324 11.9804C19.1131 12.0959 19.6464 12.381 20.065 12.7996C20.4836 13.2182 20.7687 13.7515 20.8842 14.3322C20.9997 14.9128 20.9404 15.5146 20.7139 16.0616C20.4873 16.6085 20.1037 17.076 19.6114 17.4049C19.1192 17.7338 18.5405 17.9093 17.9485 17.9093V20.9025Z" fill="white"/>
</svg>
