<svg width="391" height="396" viewBox="0 0 391 396" fill="none" xmlns="http://www.w3.org/2000/svg">
<path d="M296.222 175.143L272.682 162.114L279.999 174.332L258.547 162.842L259.715 160.658L273.254 167.896L265.797 155.472L294.797 171.528L299.636 156.713L267.868 146.389L268.622 144.023L302.776 155.124L296.222 175.143Z" fill="white"/>
<path d="M321.631 325.143L278.081 324.862L271.494 324.82L260.043 334.366L264.004 340.512L273.855 355.816L285.58 348.288L283.243 343.408L291.231 344.657L321.631 325.143ZM278.959 340.231L282.39 347.386L274.601 352.35L265.727 338.56L263.324 334.829L272.389 327.277H275.86L313.254 327.517L290.684 342.001L278.959 340.231Z" fill="white"/>
<path d="M166.33 216.341L155.558 294.926L140.644 369.375L85.1289 364.411L117.029 277.141L124.901 182.426L191.188 179.117L243.388 241.158L293.103 308.161L249.188 356.967L216.045 262.665L166.33 216.341Z" fill="white"/>
<path d="M119.322 367.488L117.856 366.495L101.649 365.32V365.875L100.82 390.997L114.749 391.468L115.577 386.133L121.435 391.7L157.744 392.965L119.322 367.488ZM113.854 381.112L112.603 388.945L103.347 388.631L104.043 368.009L117.027 368.977L149.06 390.203L122.446 389.301L113.854 381.112Z" fill="white"/>
<path d="M189.113 40.569C189.107 36.3291 186.404 32.5611 182.385 31.1901C178.366 29.8191 173.919 31.1478 171.315 34.4973C169.017 32.9784 166.114 32.6994 163.568 33.7528C161.77 32.8412 159.627 32.9272 157.908 33.98C156.189 35.0329 155.141 36.9014 155.141 38.9146C155.141 39.4006 155.205 39.8845 155.332 40.3539C152.508 41.5021 150.545 44.1054 150.219 47.1315C149.894 50.1576 151.259 53.1177 153.774 54.8382C152.092 56.1342 151.421 58.3544 152.104 60.3631C152.787 62.3718 154.673 63.725 156.798 63.7306C157.296 63.733 157.791 63.6577 158.265 63.5072L157.561 73.6901L157.387 76.1717L157.088 80.4235C156.834 81.8735 157.187 83.364 158.064 84.5474C158.941 85.7308 160.265 86.5036 161.728 86.6854L174.074 88.2322C174.303 88.2443 174.533 88.2443 174.762 88.2322C176.508 88.2305 178.144 87.3828 179.15 85.9587C180.157 84.5345 180.408 82.7113 179.824 81.0687L178.441 77.1312L177.513 74.5338L176.344 71.225C177.566 70.9457 178.692 70.3493 179.609 69.4962C184.97 64.5578 183.81 54.772 182.791 49.8171C186.605 48.3282 189.114 44.6573 189.113 40.569ZM177.513 81.929C177.853 82.8749 177.675 83.9293 177.045 84.7126C176.414 85.4959 175.421 85.8953 174.422 85.7672L162.068 84.2203C161.275 84.1201 160.558 83.6975 160.088 83.0523C159.617 82.4071 159.434 81.5966 159.582 80.8123L160.784 63.6479C162.938 65.8068 168.506 70.861 173.784 71.3491L177.513 81.929ZM180.396 50.3878C181.324 54.9209 182.352 63.623 177.91 67.6267C177.245 68.2578 176.405 68.6756 175.499 68.8261C175.121 68.8875 174.738 68.9069 174.356 68.884C169.434 68.6524 163.584 62.9116 162.109 61.3813L162.491 55.2352C164.635 54.0624 166.152 52.0037 166.634 49.6103H166.799C168.763 49.6091 170.663 48.9114 172.16 47.6415H172.334C174.156 49.4416 176.607 50.4649 179.17 50.4954C179.569 50.4917 179.967 50.4668 180.363 50.4209L180.396 50.3878Z" fill="white"/>
<path d="M81.2676 195.88L80.903 198.46L79.1216 210.835L79.0139 211.588L78.5996 210.678L73.131 198.709L71.9544 208.61L71.6561 211.117L70.4381 221.341L48.6797 213.788L52.2757 205.086L53.2203 202.778H53.2286L59.2275 188.244L60.1803 185.945L60.288 185.672L62.5832 186.623L62.4258 187.004L61.4729 189.303L55.6066 203.523L54.6537 205.831L51.9774 212.299L68.3335 217.982L69.2532 210.364L69.5432 207.857L71.2004 193.886L71.5153 191.28L71.7141 189.609L72.7498 191.859L74.3407 195.367L77.7544 202.853L78.5499 197.352L78.9144 194.771L81.2676 195.88Z" fill="white"/>
<path d="M228.57 121.469L192.983 77.4288L192.684 77.0565L177.496 74.5749H177.306L176.892 77.0565L178.441 77.313L191.342 79.4637L227.129 123.744L272.966 136.979L251.257 172.549L212.695 149.296L193.911 128.914C193.869 121.428 194.043 114.157 194.574 107.514L192.088 107.316C190.729 124.381 191.707 145.367 192.577 163.921C192.809 168.794 193.024 173.426 193.198 177.893C188.674 177.835 175.508 178.538 153.948 180.044C145.397 180.639 135.96 181.334 128.047 181.946C123.025 182.335 120.067 182.567 118.303 182.773C121.095 172.946 134.675 125.183 141.039 104.288L148.339 91.3672L146.168 90.1429L143.516 94.8415L138.752 103.287L120.473 135.681L87.877 199.127L81.2483 196.009L78.9117 194.768L72.7388 191.856L71.5125 191.277L62.3981 187.001L60.1526 185.942L58.4954 185.172L94.1245 131.826L133.814 78.562L157.345 76.2045L158.124 76.1301L157.876 73.6484H157.519L132.471 76.1301L92.169 130.395L54.8828 186.157L59.2329 188.208L61.5115 189.3L71.239 193.883L74.3794 195.364L78.5886 197.349L80.9417 198.457L89.037 202.271L122.711 136.723L135.57 113.958C128.237 138.708 117.192 177.653 115.618 183.195C115.576 183.231 115.539 183.273 115.51 183.319L115.021 183.94L115.378 184.643C115.607 185.097 116.088 185.368 116.596 185.33H116.687H117.598V185.205C118.941 185.057 121.435 184.833 124.732 184.569C142.257 183.154 182.369 180.432 192.162 180.3C192.853 180.266 193.546 180.285 194.234 180.358L195.808 180.722L195.75 179.068C195.568 174.162 195.328 169.083 195.079 163.706C194.607 153.689 194.101 142.944 193.952 132.512L211.112 151.133L252.086 175.866L259.659 163.458L260.951 161.341L269.693 147.005L271.019 144.821L276.777 135.383L228.57 121.469Z" fill="white"/>
<path d="M89.0191 228.154L93.0625 215.192L79.1176 210.849L78.5956 210.692L71.967 208.624L69.5558 207.871L69.2575 210.353L71.6687 211.106L89.9636 216.797L86.6493 227.393L37.001 211.85L40.3153 201.345L52.3131 205.075L54.6911 205.82L55.644 203.512L53.266 202.767L38.6913 198.234L34.6727 211.114L19.3523 206.316L0.121094 267.529L88.1656 295.091L107.397 233.837L89.0191 228.154ZM86.4836 292.055L3.18682 265.966L20.9101 209.451L33.8607 213.505L36.2305 214.249L85.8705 229.784L88.2485 230.528L104.207 235.491L86.4836 292.055Z" fill="white"/>
<path d="M307.189 395.442H381.761C381.761 395.442 399.989 373.935 383.418 375.589C366.846 377.243 347.789 382.207 354.418 370.626C361.046 359.045 394.189 334.229 372.646 335.883C351.103 337.538 336.189 352.427 334.532 360.699C332.875 368.971 322.932 356.563 312.989 358.218C303.046 359.872 305.532 368.144 312.989 375.589C320.446 383.034 288.96 380.552 307.189 395.442Z" fill="white"/>
<path d="M98.1775 0.76616L38.8281 14.0547L52.1715 73.3381L111.521 60.0496L98.1775 0.76616Z" fill="#5661F6"/>
<path d="M80.0872 66.9538L74.2871 35.1562L44.9472 40.4834L27.6797 43.6102L36.0897 89.8507L82.7469 81.3967L80.0872 66.9538ZM38.0535 86.9638L30.5383 45.6038L45.4527 42.8988L72.2903 38.0432L77.6511 67.4998L79.8137 79.3949L38.0535 86.9638Z" fill="white"/>
</svg>
