<svg width="55" height="55" viewBox="0 0 55 55" fill="none" xmlns="http://www.w3.org/2000/svg">
<rect x="0.738281" y="0.695312" width="53.625" height="53.625" rx="9.9" fill="url(#paint0_linear_1038_10147)"/>
<path d="M16.0469 40.7043H26.8292M26.8292 40.7043H27.0054M26.8292 40.7043C26.8586 40.7046 26.8879 40.7047 26.9173 40.7047C26.9467 40.7047 26.9761 40.7046 27.0054 40.7043M26.8292 40.7043C20.8662 40.657 16.0469 35.8077 16.0469 29.8335V23.5024C16.0469 22.7107 16.6883 22.0693 17.48 22.0693H36.354C37.1456 22.0693 37.7878 22.7107 37.7878 23.5024V23.6222M27.0054 40.7043H37.7878M27.0054 40.7043C32.9684 40.657 37.7878 35.8077 37.7878 29.8335M37.7878 23.6222H40.1171C42.2613 23.6222 43.9994 25.3604 43.9994 27.5045C43.9994 29.6486 42.2613 31.3868 40.1171 31.3868H37.7878V29.8335M37.7878 23.6222V29.8335M33.129 14.3047L31.5761 17.4105M28.4702 14.3047L26.9173 17.4105M23.8115 14.3047L22.2586 17.4105" stroke="white" stroke-width="2.475" stroke-linecap="round" stroke-linejoin="round"/>
<defs>
<linearGradient id="paint0_linear_1038_10147" x1="0.738281" y1="27.5078" x2="54.3633" y2="27.5078" gradientUnits="userSpaceOnUse">
<stop stop-color="#638DFF"/>
<stop offset="1" stop-color="#5661F6"/>
</linearGradient>
</defs>
</svg>
