<svg width="55" height="55" viewBox="0 0 55 55" fill="none" xmlns="http://www.w3.org/2000/svg">
<rect x="0.738281" y="0.695312" width="53.625" height="53.625" rx="9.9" fill="url(#paint0_linear_1038_10157)"/>
<path d="M20.5506 40.7047V35.2375H17.1055V32.7285H20.5506V29.4706H17.1055V26.9992H20.5506V14.3047H29.2008C31.0731 14.3047 32.6709 14.6167 33.994 15.2409C35.3171 15.865 36.3157 16.7512 36.9897 17.8996C37.6638 19.048 38.0008 20.421 38.0008 22.0187C38.0008 23.5416 37.6513 24.8647 36.9523 25.9881C36.2533 27.0865 35.2672 27.9478 33.994 28.5719C32.7208 29.1711 31.2229 29.4706 29.5004 29.4706H24.0331V32.7285H30.474V35.2375H24.0331V40.7047H20.5506ZM23.9957 26.9992H28.9012C30.7486 26.9992 32.1591 26.6122 33.1327 25.8383C34.1313 25.0394 34.6306 23.8287 34.6306 22.206C34.6306 20.5583 34.1438 19.335 33.1701 18.5362C32.1965 17.7123 30.7736 17.3004 28.9012 17.3004H23.9957V26.9992Z" fill="white"/>
<defs>
<linearGradient id="paint0_linear_1038_10157" x1="0.738281" y1="27.5078" x2="54.3633" y2="27.5078" gradientUnits="userSpaceOnUse">
<stop stop-color="#638DFF"/>
<stop offset="1" stop-color="#5661F6"/>
</linearGradient>
</defs>
</svg>
