<svg width="33" height="33" viewBox="0 0 33 33" fill="none" xmlns="http://www.w3.org/2000/svg">
<path d="M27.6016 0.203125H5.60156C2.84014 0.203125 0.601562 2.4417 0.601562 5.20312V27.2031C0.601562 29.9645 2.84014 32.2031 5.60156 32.2031H27.6016C30.363 32.2031 32.6016 29.9645 32.6016 27.2031V5.20312C32.6016 2.4417 30.363 0.203125 27.6016 0.203125Z" fill="#0088CC"/>
<path d="M8.70148 15.9114C12.9964 14.0402 15.8604 12.8065 17.2934 12.2105C21.3849 10.5087 22.2351 10.2131 22.7892 10.2032C22.9111 10.2012 23.1836 10.2314 23.3601 10.3746C23.5092 10.4956 23.5502 10.6589 23.5698 10.7736C23.5894 10.8883 23.6139 11.1495 23.5944 11.3536C23.3727 13.6832 22.4134 19.3366 21.9253 21.9458C21.7188 23.0499 21.3121 23.4201 20.9184 23.4563C20.0628 23.535 19.4132 22.8909 18.5845 22.3477C17.2878 21.4977 16.5553 20.9686 15.2966 20.1391C13.842 19.1806 14.7849 18.6537 15.6139 17.7927C15.8309 17.5674 19.6005 14.1386 19.6735 13.8275C19.6826 13.7886 19.6911 13.6436 19.6049 13.5671C19.5188 13.4905 19.3917 13.5167 19.2999 13.5375C19.1698 13.567 17.0984 14.9362 13.0855 17.645C12.4975 18.0488 11.9649 18.2455 11.4877 18.2352C10.9617 18.2238 9.94978 17.9378 9.19754 17.6932C8.27489 17.3933 7.54158 17.2347 7.60544 16.7254C7.6387 16.4601 8.00404 16.1888 8.70148 15.9114Z" fill="white"/>
</svg>
