<svg width="100" height="100" viewBox="0 0 100 100" fill="none" xmlns="http://www.w3.org/2000/svg">
<rect y="0.0078125" width="100" height="100" rx="15" fill="url(#paint0_linear_1021_1528)"/>
<path d="M39.1693 82.5078H60.8359M50.0026 17.5078C38.0364 17.5078 28.3359 27.2083 28.3359 39.1745C28.3359 43.5602 29.639 47.6415 31.879 51.0525C35.3237 56.2977 37.0445 58.9187 37.2681 59.3104C39.257 62.7948 38.8908 61.5659 39.1411 65.5702C39.1692 66.0203 39.1693 66.7016 39.1693 68.0634C39.1693 70.0577 40.786 71.6745 42.7804 71.6745L57.2248 71.6745C59.2192 71.6745 60.8359 70.0577 60.8359 68.0634C60.8359 66.7016 60.8359 66.0203 60.8641 65.5702C61.1144 61.5659 60.7461 62.7948 62.7349 59.3104C62.9585 58.9187 64.6823 56.2977 68.1269 51.0525C70.367 47.6415 71.67 43.5602 71.67 39.1745C71.67 27.2083 61.9688 17.5078 50.0026 17.5078Z" stroke="white" stroke-width="5" stroke-linecap="round" stroke-linejoin="round"/>
<defs>
<linearGradient id="paint0_linear_1021_1528" x1="0" y1="50.0078" x2="100" y2="50.0078" gradientUnits="userSpaceOnUse">
<stop stop-color="#638DFF"/>
<stop offset="1" stop-color="#5661F6"/>
</linearGradient>
</defs>
</svg>
