<svg width="100" height="100" viewBox="0 0 100 100" fill="none" xmlns="http://www.w3.org/2000/svg">
<rect y="0.0078125" width="100" height="100" rx="15" fill="url(#paint0_linear_1021_1514)"/>
<path d="M39.1671 68.0634H60.8338M39.1671 57.23H60.8338M53.6129 17.511C53.2679 17.5078 52.8798 17.5078 52.4369 17.5078H36.2789C32.2341 17.5078 30.2102 17.5078 28.6653 18.295C27.3063 18.9874 26.2022 20.0915 25.5098 21.4504C24.7227 22.9953 24.7227 25.0192 24.7227 29.0641V70.9529C24.7227 74.9978 24.7227 77.0191 25.5098 78.5641C26.2023 79.923 27.3063 81.029 28.6653 81.7214C30.2087 82.5078 32.2302 82.5078 36.2672 82.5078L63.7338 82.5078C67.7707 82.5078 69.7893 82.5078 71.3327 81.7214C72.6916 81.029 73.7994 79.923 74.4918 78.564C75.2782 77.0206 75.2782 75.0021 75.2782 70.9652V40.3506C75.2782 39.9076 75.2778 39.5195 75.2747 39.1745M53.6129 17.511C54.6437 17.5204 55.2933 17.5586 55.9161 17.7081C56.653 17.885 57.3593 18.1768 58.0055 18.5728C58.7341 19.0193 59.3598 19.6449 60.6081 20.8932L71.8945 32.1797C73.1436 33.4288 73.7647 34.0516 74.2113 34.7805C74.6073 35.4266 74.9003 36.1312 75.0772 36.8682C75.2267 37.4909 75.2653 38.1437 75.2747 39.1745M53.6129 17.511L53.6115 27.6197C53.6115 31.6645 53.6115 33.6861 54.3987 35.2311C55.0911 36.59 56.1952 37.6957 57.5541 38.3881C59.0975 39.1745 61.1191 39.1745 65.156 39.1745H75.2747" stroke="white" stroke-width="5" stroke-linecap="round" stroke-linejoin="round"/>
<defs>
<linearGradient id="paint0_linear_1021_1514" x1="0" y1="50.0078" x2="100" y2="50.0078" gradientUnits="userSpaceOnUse">
<stop stop-color="#638DFF"/>
<stop offset="1" stop-color="#5661F6"/>
</linearGradient>
</defs>
</svg>
