<svg width="100" height="100" viewBox="0 0 100 100" fill="none" xmlns="http://www.w3.org/2000/svg">
<rect y="0.0078125" width="100" height="100" rx="15" fill="url(#paint0_linear_1021_1535)"/>
<path d="M78.8887 31.9522H71.12C69.3234 31.9522 68.0555 30.1377 68.0555 28.3411C68.0555 22.3581 63.2052 17.5078 57.2222 17.5078C51.2391 17.5078 46.3888 22.3581 46.3888 28.3411C46.3888 30.1377 45.1208 31.9522 43.3242 31.9522H35.5555C33.5612 31.9522 31.9444 33.569 31.9444 35.5633V43.332C31.9444 45.1286 30.1299 46.3967 28.3333 46.3967C22.3502 46.3967 17.5 51.2469 17.5 57.23C17.5 63.213 22.3502 68.0633 28.3333 68.0633C30.1299 68.0633 31.9444 69.3312 31.9444 71.1278V78.8966C31.9444 80.891 33.5612 82.5077 35.5555 82.5077L78.8888 82.5078C80.8831 82.5078 82.4999 80.8908 82.4999 78.8965V71.1278C82.4999 69.3312 80.6853 68.0633 78.8888 68.0633C72.9057 68.0633 68.0555 63.213 68.0555 57.23C68.0555 51.2469 72.9057 46.3967 78.8888 46.3967C80.6853 46.3967 82.4999 45.1286 82.4999 43.332L82.5 35.5633C82.5 33.569 80.883 31.9522 78.8887 31.9522Z" stroke="white" stroke-width="5" stroke-linecap="round" stroke-linejoin="round"/>
<defs>
<linearGradient id="paint0_linear_1021_1535" x1="0" y1="50.0078" x2="100" y2="50.0078" gradientUnits="userSpaceOnUse">
<stop stop-color="#638DFF"/>
<stop offset="1" stop-color="#5661F6"/>
</linearGradient>
</defs>
</svg>
