<svg width="100" height="101" viewBox="0 0 100 101" fill="none" xmlns="http://www.w3.org/2000/svg">
<rect y="0.476562" width="100" height="100" rx="15" fill="#5661F6"/>
<path d="M16.4768 44.4843C15.3904 43.4796 15.9805 41.6633 17.45 41.489L38.272 39.0193C38.8709 38.9483 39.3912 38.5722 39.6438 38.0245L48.4262 18.9845C49.046 17.6408 50.9563 17.6405 51.5761 18.9842L60.3585 38.0241C60.6111 38.5718 61.128 38.9489 61.7269 39.0199L82.55 41.489C84.0195 41.6633 84.608 43.4801 83.5216 44.4848L68.1291 58.722C67.6863 59.1315 67.4891 59.741 67.6067 60.3325L71.6918 80.8982C71.9802 82.3496 70.4355 83.4742 69.1443 82.7514L50.848 72.5073C50.3217 72.2127 49.6824 72.2141 49.1561 72.5087L30.8579 82.7488C29.5667 83.4716 28.0191 82.3496 28.3075 80.8982L32.3933 60.3338C32.5109 59.7422 32.3142 59.1313 31.8714 58.7219L16.4768 44.4843Z" stroke="white" stroke-width="5" stroke-linecap="round" stroke-linejoin="round"/>
</svg>
