<svg width="100" height="100" viewBox="0 0 100 100" fill="none" xmlns="http://www.w3.org/2000/svg">
<rect y="0.0078125" width="100" height="100" rx="15" fill="url(#paint0_linear_1021_1549)"/>
<path d="M68.0556 77.0964C68.0556 71.1133 59.9718 66.263 50 66.263C40.0282 66.263 31.9444 71.1133 31.9444 77.0964M82.5 66.2644C82.5 61.822 78.0435 58.0042 71.6667 56.3325M17.5 66.2644C17.5 61.822 21.9565 58.0042 28.3333 56.3325M71.6667 41.8378C73.883 39.8542 75.2778 36.9715 75.2778 33.763C75.2778 27.7799 70.4275 22.9297 64.4444 22.9297C61.6698 22.9297 59.1388 23.9728 57.2222 25.6882M28.3333 41.8378C26.117 39.8542 24.7222 36.9715 24.7222 33.763C24.7222 27.7799 29.5725 22.9297 35.5556 22.9297C38.3302 22.9297 40.8612 23.9728 42.7778 25.6882M50 55.4297C44.0169 55.4297 39.1667 50.5794 39.1667 44.5964C39.1667 38.6133 44.0169 33.763 50 33.763C55.9831 33.763 60.8333 38.6133 60.8333 44.5964C60.8333 50.5794 55.9831 55.4297 50 55.4297Z" stroke="white" stroke-width="5" stroke-linecap="round" stroke-linejoin="round"/>
<defs>
<linearGradient id="paint0_linear_1021_1549" x1="0" y1="50.0078" x2="100" y2="50.0078" gradientUnits="userSpaceOnUse">
<stop stop-color="#638DFF"/>
<stop offset="1" stop-color="#5661F6"/>
</linearGradient>
</defs>
</svg>
