<svg width="100" height="101" viewBox="0 0 100 101" fill="none" xmlns="http://www.w3.org/2000/svg">
<rect y="0.476562" width="100" height="100" rx="15" fill="#5661F6"/>
<path d="M39.1671 68.5321H60.8338M39.1671 57.6988H60.8338M53.6129 17.9797C53.2679 17.9766 52.8798 17.9766 52.4369 17.9766H36.2789C32.2341 17.9766 30.2102 17.9766 28.6653 18.7637C27.3063 19.4562 26.2022 20.5602 25.5098 21.9192C24.7227 23.4641 24.7227 25.488 24.7227 29.5328V71.4217C24.7227 75.4665 24.7227 77.4879 25.5098 79.0328C26.2023 80.3918 27.3063 81.4977 28.6653 82.1902C30.2087 82.9766 32.2302 82.9766 36.2672 82.9766L63.7338 82.9766C67.7707 82.9766 69.7893 82.9766 71.3327 82.1902C72.6916 81.4977 73.7994 80.3917 74.4918 79.0328C75.2782 77.4894 75.2782 75.4708 75.2782 71.4339V40.8193C75.2782 40.3764 75.2778 39.9882 75.2747 39.6432M53.6129 17.9797C54.6437 17.9891 55.2933 18.0274 55.9161 18.1769C56.653 18.3538 57.3593 18.6456 58.0055 19.0416C58.7341 19.4881 59.3598 20.1137 60.6081 21.362L71.8945 32.6484C73.1436 33.8975 73.7647 34.5204 74.2113 35.2492C74.6073 35.8954 74.9003 36.6 75.0772 37.3369C75.2267 37.9597 75.2653 38.6124 75.2747 39.6432M53.6129 17.9797L53.6115 28.0884C53.6115 32.1333 53.6115 34.1549 54.3987 35.6998C55.0911 37.0588 56.1952 38.1644 57.5541 38.8568C59.0975 39.6432 61.1191 39.6432 65.156 39.6432H75.2747" stroke="white" stroke-width="5" stroke-linecap="round" stroke-linejoin="round"/>
</svg>
