<svg width="100" height="101" viewBox="0 0 100 101" fill="none" xmlns="http://www.w3.org/2000/svg">
<rect y="0.476562" width="100" height="100" rx="15" fill="#5661F6"/>
<path d="M78.8887 32.421H71.12C69.3234 32.421 68.0555 30.6064 68.0555 28.8099C68.0555 22.8268 63.2052 17.9766 57.2222 17.9766C51.2391 17.9766 46.3888 22.8268 46.3888 28.8099C46.3888 30.6064 45.1208 32.421 43.3242 32.421H35.5555C33.5612 32.421 31.9444 34.0377 31.9444 36.0321V43.8008C31.9444 45.5973 30.1299 46.8654 28.3333 46.8654C22.3502 46.8654 17.5 51.7156 17.5 57.6987C17.5 63.6818 22.3502 68.532 28.3333 68.532C30.1299 68.532 31.9444 69.8 31.9444 71.5965V79.3653C31.9444 81.3597 33.5612 82.9765 35.5555 82.9765L78.8888 82.9766C80.8831 82.9766 82.4999 81.3596 82.4999 79.3652V71.5965C82.4999 69.8 80.6853 68.532 78.8888 68.532C72.9057 68.532 68.0555 63.6818 68.0555 57.6987C68.0555 51.7156 72.9057 46.8654 78.8888 46.8654C80.6853 46.8654 82.4999 45.5973 82.4999 43.8008L82.5 36.0321C82.5 34.0377 80.883 32.421 78.8887 32.421Z" stroke="white" stroke-width="5" stroke-linecap="round" stroke-linejoin="round"/>
</svg>
