<svg width="100" height="100" viewBox="0 0 100 100" fill="none" xmlns="http://www.w3.org/2000/svg">
<rect y="0.0078125" width="100" height="100" rx="15" fill="url(#paint0_linear_1021_1521)"/>
<path d="M16.4768 44.0155C15.3904 43.0108 15.9805 41.1945 17.45 41.0203L38.272 38.5506C38.8709 38.4795 39.3912 38.1034 39.6438 37.5558L48.4262 18.5157C49.046 17.172 50.9563 17.1718 51.5761 18.5155L60.3585 37.5554C60.6111 38.103 61.128 38.4802 61.7269 38.5512L82.55 41.0203C84.0195 41.1945 84.608 43.0114 83.5216 44.0161L68.1291 58.2532C67.6863 58.6627 67.4891 59.2722 67.6067 59.8637L71.6918 80.4295C71.9802 81.8809 70.4355 83.0055 69.1443 82.2827L50.848 72.0386C50.3217 71.744 49.6824 71.7454 49.1561 72.0399L30.8579 82.2801C29.5667 83.0029 28.0191 81.8808 28.3075 80.4294L32.3933 59.865C32.5109 59.2735 32.3142 58.6626 31.8714 58.2531L16.4768 44.0155Z" stroke="white" stroke-width="5" stroke-linecap="round" stroke-linejoin="round"/>
<defs>
<linearGradient id="paint0_linear_1021_1521" x1="0" y1="50.0078" x2="100" y2="50.0078" gradientUnits="userSpaceOnUse">
<stop stop-color="#638DFF"/>
<stop offset="1" stop-color="#5661F6"/>
</linearGradient>
</defs>
</svg>
