<svg width="100" height="101" viewBox="0 0 100 101" fill="none" xmlns="http://www.w3.org/2000/svg">
<rect y="0.476562" width="100" height="100" rx="15" fill="#5661F6"/>
<path d="M39.1693 82.9766H60.8359M50.0026 17.9766C38.0364 17.9766 28.3359 27.6771 28.3359 39.6432C28.3359 44.0289 29.639 48.1103 31.879 51.5212C35.3237 56.7665 37.0445 59.3874 37.2681 59.7791C39.257 63.2636 38.8908 62.0346 39.1411 66.0389C39.1692 66.489 39.1693 67.1703 39.1693 68.5321C39.1693 70.5265 40.786 72.1432 42.7804 72.1432L57.2248 72.1432C59.2192 72.1432 60.8359 70.5265 60.8359 68.5321C60.8359 67.1703 60.8359 66.489 60.8641 66.0389C61.1144 62.0346 60.7461 63.2636 62.7349 59.7791C62.9585 59.3874 64.6823 56.7665 68.1269 51.5212C70.367 48.1103 71.67 44.0289 71.67 39.6432C71.67 27.6771 61.9688 17.9766 50.0026 17.9766Z" stroke="white" stroke-width="5" stroke-linecap="round" stroke-linejoin="round"/>
</svg>
