<svg width="100" height="101" viewBox="0 0 100 101" fill="none" xmlns="http://www.w3.org/2000/svg">
<rect y="0.476562" width="100" height="100" rx="15" fill="#5661F6"/>
<path d="M68.0556 77.5651C68.0556 71.582 59.9718 66.7318 50 66.7318C40.0282 66.7318 31.9444 71.582 31.9444 77.5651M82.5 66.7331C82.5 62.2908 78.0435 58.4729 71.6667 56.8012M17.5 66.7331C17.5 62.2908 21.9565 58.4729 28.3333 56.8012M71.6667 42.3066C73.883 40.3229 75.2778 37.4402 75.2778 34.2318C75.2778 28.2487 70.4275 23.3984 64.4444 23.3984C61.6698 23.3984 59.1388 24.4415 57.2222 26.1569M28.3333 42.3066C26.117 40.3229 24.7222 37.4402 24.7222 34.2318C24.7222 28.2487 29.5725 23.3984 35.5556 23.3984C38.3302 23.3984 40.8612 24.4415 42.7778 26.1569M50 55.8984C44.0169 55.8984 39.1667 51.0482 39.1667 45.0651C39.1667 39.082 44.0169 34.2318 50 34.2318C55.9831 34.2318 60.8333 39.082 60.8333 45.0651C60.8333 51.0482 55.9831 55.8984 50 55.8984Z" stroke="white" stroke-width="5" stroke-linecap="round" stroke-linejoin="round"/>
</svg>
