<svg width="33" height="33" viewBox="0 0 33 33" fill="none" xmlns="http://www.w3.org/2000/svg">
<path d="M27.6016 0.203125H5.60156C2.84014 0.203125 0.601562 2.4417 0.601562 5.20312V27.2031C0.601562 29.9645 2.84014 32.2031 5.60156 32.2031H27.6016C30.363 32.2031 32.6016 29.9645 32.6016 27.2031V5.20312C32.6016 2.4417 30.363 0.203125 27.6016 0.203125Z" fill="#7360F2"/>
<g clip-path="url(#clip0_889_350)">
<path d="M21.9316 10.463C21.5589 10.1191 20.0527 9.02562 16.6976 9.01077C16.6976 9.01077 12.7412 8.77218 10.8125 10.5413C9.73883 11.6152 9.36114 13.1864 9.32131 15.1345C9.28147 17.0826 9.22992 20.7334 12.749 21.7233H12.7524L12.7502 23.2338C12.7502 23.2338 12.7277 23.8453 13.1303 23.97C13.6174 24.1213 13.9033 23.6565 14.3683 23.1555C14.6235 22.8804 14.976 22.4764 15.2416 22.1676C17.6484 22.3702 19.4994 21.9072 19.7096 21.8387C20.1956 21.6812 22.9454 21.3287 23.3926 17.6784C23.8543 13.9157 23.1693 11.5357 21.9316 10.463ZM22.3395 17.4085C21.962 20.4565 19.7317 20.6481 19.3205 20.78C19.1456 20.8362 17.5198 21.2407 15.4754 21.1072C15.4754 21.1072 13.9521 22.945 13.4763 23.4229C13.402 23.4976 13.3147 23.5277 13.2564 23.5129C13.1744 23.4929 13.1519 23.3958 13.1528 23.254C13.1542 23.0515 13.1659 20.744 13.1659 20.744C13.1659 20.744 13.1641 20.744 13.1659 20.744C10.189 19.9175 10.3625 16.8102 10.3963 15.1831C10.43 13.556 10.7357 12.2231 11.6437 11.3266C13.2751 9.84896 16.6357 10.0698 16.6357 10.0698C19.4738 10.0821 20.8337 10.9368 21.149 11.2231C22.1961 12.1196 22.7295 14.2648 22.3395 17.4076V17.4085Z" fill="white"/>
<path d="M18.0805 15.2391C18.0319 15.2391 17.9851 15.2204 17.9499 15.1869C17.9146 15.1533 17.8936 15.1076 17.8912 15.059C17.859 14.415 17.5556 14.0997 16.9364 14.0664C16.8871 14.0625 16.8412 14.0394 16.8086 14.0022C16.7761 13.9649 16.7593 13.9164 16.762 13.867C16.7647 13.8176 16.7865 13.7712 16.823 13.7376C16.8594 13.7041 16.9074 13.6862 16.9569 13.6876C17.7739 13.7326 18.2282 14.1992 18.27 15.0401C18.2713 15.065 18.2676 15.0899 18.2592 15.1133C18.2508 15.1368 18.2379 15.1584 18.2212 15.1769C18.2045 15.1953 18.1843 15.2103 18.1618 15.221C18.1392 15.2317 18.1148 15.2378 18.09 15.2391H18.0805Z" fill="white"/>
<path d="M19.0505 15.5692H19.046C18.9957 15.568 18.948 15.5469 18.9132 15.5105C18.8785 15.4741 18.8596 15.4254 18.8608 15.3751C18.8754 14.7267 18.6902 14.2016 18.2945 13.7699C17.8988 13.3382 17.3597 13.1041 16.641 13.0514C16.5908 13.0477 16.544 13.0243 16.5111 12.9861C16.4781 12.948 16.4617 12.8983 16.4653 12.8481C16.469 12.7978 16.4925 12.751 16.5306 12.7181C16.5688 12.6852 16.6184 12.6687 16.6687 12.6724C17.4774 12.7316 18.1184 13.0145 18.5742 13.5131C19.03 14.0116 19.2567 14.6423 19.24 15.383C19.239 15.4327 19.2186 15.4799 19.1832 15.5147C19.1478 15.5495 19.1002 15.5691 19.0505 15.5692V15.5692Z" fill="white"/>
<path d="M20.0499 15.9582C19.9998 15.9581 19.9518 15.9383 19.9163 15.903C19.8807 15.8677 19.8606 15.8198 19.8601 15.7698C19.8514 14.6099 19.5173 13.724 18.8389 13.0618C18.1687 12.4091 17.3219 12.0742 16.3219 12.067C16.297 12.0669 16.2723 12.0619 16.2493 12.0523C16.2263 12.0427 16.2055 12.0286 16.1879 12.0109C16.1525 11.9752 16.1326 11.9269 16.1328 11.8766C16.133 11.8262 16.1532 11.7781 16.1889 11.7426C16.2246 11.7071 16.2729 11.6873 16.3232 11.6875H16.3248C17.4259 11.6956 18.3609 12.0665 19.1039 12.7904C19.8469 13.5142 20.2299 14.5177 20.2398 15.7675C20.2402 15.8178 20.2206 15.8662 20.1853 15.902C20.15 15.9378 20.102 15.9582 20.0517 15.9586L20.0499 15.9582Z" fill="white"/>
<path d="M16.9835 17.5884C16.9835 17.5884 17.2502 17.6109 17.3938 17.434L17.6738 17.0817C17.8089 16.9071 18.1348 16.7956 18.4539 16.9735C18.6931 17.1099 18.9253 17.2581 19.1497 17.4178C19.3615 17.5735 19.7952 17.9354 19.7965 17.9354C20.0032 18.1099 20.0509 18.366 19.9102 18.6361C19.9102 18.6377 19.9091 18.6404 19.9091 18.6417C19.7541 18.9103 19.5574 19.1525 19.3263 19.3593C19.3236 19.3606 19.3236 19.362 19.3212 19.3633C19.1204 19.5311 18.9231 19.6265 18.7294 19.6494C18.7009 19.6544 18.6719 19.6562 18.643 19.6548C18.5576 19.6557 18.4726 19.6426 18.3914 19.6161L18.3851 19.6069C18.0866 19.5227 17.5883 19.312 16.7584 18.8542C16.2782 18.5924 15.821 18.2904 15.3917 17.9514C15.1766 17.7816 14.9713 17.5996 14.777 17.4063L14.7563 17.3856L14.7356 17.3649L14.7149 17.3442C14.7079 17.3374 14.7012 17.3304 14.6942 17.3235C14.5009 17.1291 14.3189 16.9239 14.1491 16.7088C13.8101 16.2795 13.5081 15.8224 13.2463 15.3423C12.7884 14.5122 12.5778 14.0143 12.4936 13.7154L12.4844 13.7091C12.458 13.6279 12.445 13.5429 12.4459 13.4575C12.4443 13.4286 12.446 13.3996 12.4511 13.371C12.4752 13.1776 12.5707 12.9802 12.7376 12.7789C12.7389 12.7764 12.7403 12.7764 12.7416 12.7737C12.9483 12.5426 13.1905 12.346 13.4592 12.1912C13.4605 12.1912 13.4632 12.1898 13.4648 12.1898C13.7349 12.0492 13.991 12.0969 14.1653 12.3024C14.1666 12.3037 14.5279 12.7374 14.6829 12.9492C14.8426 13.1738 14.9909 13.4062 15.1273 13.6456C15.3051 13.9646 15.1937 14.2912 15.019 14.4258L14.6667 14.7058C14.4889 14.8494 14.5123 15.1161 14.5123 15.1161C14.5123 15.1161 15.0341 17.0907 16.9835 17.5884Z" fill="white"/>
</g>
<defs>
<clipPath id="clip0_889_350">
<rect width="15" height="15" fill="white" transform="translate(9 9)"/>
</clipPath>
</defs>
</svg>
