<svg width="33" height="33" viewBox="0 0 33 33" fill="none" xmlns="http://www.w3.org/2000/svg">
<path d="M27.6016 0.203125H5.60156C2.84014 0.203125 0.601562 2.4417 0.601562 5.20312V27.2031C0.601562 29.9645 2.84014 32.2031 5.60156 32.2031H27.6016C30.363 32.2031 32.6016 29.9645 32.6016 27.2031V5.20312C32.6016 2.4417 30.363 0.203125 27.6016 0.203125Z" fill="#25D366"/>
<path fill-rule="evenodd" clip-rule="evenodd" d="M22.2016 10.5031C20.7016 9.00313 18.7016 8.20312 16.6016 8.20312C12.2016 8.20312 8.60156 11.8031 8.60156 16.2031C8.60156 17.6031 9.00157 19.0031 9.70157 20.2031L8.60156 24.2031L12.8016 23.1031C14.0016 23.7031 15.3016 24.1031 16.6016 24.1031C21.0016 24.1031 24.6016 20.5031 24.6016 16.1031C24.6016 14.0031 23.7016 12.0031 22.2016 10.5031ZM16.6016 22.8031C15.4016 22.8031 14.2016 22.5031 13.2016 21.9031L13.0016 21.8031L10.5016 22.5031L11.2016 20.1031L11.0016 19.8031C10.3016 18.7031 10.0016 17.5031 10.0016 16.3031C10.0016 12.7031 13.0016 9.70312 16.6016 9.70312C18.4016 9.70312 20.0016 10.4031 21.3016 11.6031C22.6016 12.9031 23.2016 14.5031 23.2016 16.3031C23.2016 19.8031 20.3016 22.8031 16.6016 22.8031ZM20.2016 17.8031C20.0016 17.7031 19.0016 17.2031 18.8016 17.2031C18.6016 17.1031 18.5016 17.1031 18.4016 17.3031C18.3015 17.5031 17.9016 17.9031 17.8016 18.1031C17.7016 18.2031 17.6016 18.2031 17.4016 18.2031C17.2016 18.1031 16.6016 17.9031 15.8016 17.2031C15.2016 16.7031 14.8016 16.0031 14.7016 15.8031C14.6016 15.6031 14.7016 15.5031 14.8016 15.4031C14.9016 15.3031 15.0016 15.2031 15.1016 15.1031C15.2016 15.0031 15.2016 14.9031 15.3016 14.8031C15.4016 14.7031 15.3016 14.6031 15.3016 14.5031C15.3016 14.4031 14.9016 13.4031 14.7016 13.0031C14.6016 12.7031 14.4016 12.7031 14.3016 12.7031C14.2016 12.7031 14.1016 12.7031 13.9016 12.7031C13.8016 12.7031 13.6016 12.7031 13.4016 12.9031C13.2016 13.1031 12.7016 13.6031 12.7016 14.6031C12.7016 15.6031 13.4016 16.5031 13.5016 16.7031C13.6016 16.8031 14.9016 18.9031 16.9016 19.7031C18.6016 20.4031 18.9016 20.2031 19.3016 20.2031C19.7016 20.2031 20.5016 19.7031 20.6016 19.3031C20.8016 18.8031 20.8016 18.4031 20.7016 18.4031C20.6016 17.9031 20.4016 17.9031 20.2016 17.8031Z" fill="white"/>
</svg>
